<?xml version="1.0" encoding="utf-8"?>
<!-- Generator: Adobe Illustrator 23.0.1, SVG Export Plug-In . SVG Version: 6.00 Build 0)  -->
<svg version="1.1" id="Слой_1" xmlns="http://www.w3.org/2000/svg" xmlns:xlink="http://www.w3.org/1999/xlink" x="0px" y="0px"
	 viewBox="0 0 185 222" style="enable-background:new 0 0 185 222;" xml:space="preserve">
<style type="text/css">
	.st0{fill:#FFFFFF;}
</style>
<g>
	<g>
		<path class="st0" d="M46,1c4.86,2.82,9.06,6.14,9.31,11.53c4.65,1.78,9.47,2.57,12.92,5.17c8.02,6.05,6.35,18.98-2.86,23.06
			c-3.77,1.67-3.83,3.59-3.19,6.93c3.78,19.69,20.94,36.74,38.62,38.62c10.39,1.11,19.77-1.52,28.22-7.19
			c8.94-6,15.26-14.23,17.97-24.83c0.68-2.66,0.86-5.54,0.76-8.29c-0.22-6.04,2.44-10.32,7.68-12.86
			c5.22-2.53,10.56-2.05,15.03,1.56c4.37,3.53,6.12,8.42,4.82,14.12c-0.1,0.46,0.03,0.98,0.07,1.81c5.32,1.98,8.76,5.97,10.65,11.37
			c0,1.67,0,3.33,0,5c-1.52,3.02-3.04,6.05-4.42,8.81c1.49,3.1,2.96,6.14,4.42,9.19c0,1.33,0,2.67,0,4
			c-1.82,7.48-6.56,11.62-14.62,12.34c-1.37,20.88-6.79,40.02-24.69,53.17c-11.43,8.4-24.42,12.14-38.64,12.55c0-2.13,0-3.86,0-5.63
			c14.67-1.16,28.01-5.22,38.95-15.11c13.7-12.38,17.75-28.79,18.22-46.35c0.12-4.52,1.5-5.34,5.54-5c5.11,0.43,8.59-2.67,9.03-7.25
			c0.4-4.17-3.09-8.22-7.73-8.96c-0.33-0.05-0.67,0-1-0.05c-2.22-0.37-5.74,1.21-5.83-2.7c-0.09-4.14,3.5-3.03,5.99-3.18
			c5.09-0.31,8.39-3.32,8.57-7.89c0.17-4.39-3.13-7.95-8-8.61c-6.01-0.82-6.18-0.96-3.12-6.42c2.06-3.68,1.41-7.21-1.37-9.48
			c-1.98-1.62-5.54-2.5-8.06-2c-3.6,0.71-5.49,3.73-5.59,7.83c-0.45,19.6-10.51,33.04-27.66,41.36c-17.12,8.31-33.67,6.58-48.72-5
			C63.81,72.22,56.81,58.1,55.39,41.16c-0.26-3.11,0.62-4.55,3.95-4.86c4.19-0.38,7.54-2.8,7.67-7.11c0.07-2.5-1.39-5.66-3.22-7.47
			c-2.74-2.72-6.3-2.11-9.68-0.19c-1.23,0.7-2.96,0.5-4.47,0.71c-0.2-1.47-0.28-2.96-0.62-4.4c-0.76-3.16-0.72-7.54-2.76-9.07
			c-2.13-1.59-6.85-1.49-9.48-0.19c-3.32,1.64-4.33,5.48-2.9,9.57c0.5,1.43-0.25,3.31-0.42,4.98c-1.49-0.24-3.16-0.12-4.45-0.77
			c-5.32-2.69-9.59-1.46-11.94,3.68c-2.09,4.57-0.11,9.68,5.38,10.67c7.48,1.35,3.96,6.63,4.72,10.39c0.79,3.88-1.19,5.71-4.83,6.64
			c-3.16,0.81-6.17,2.2-10.42,3.77c3.79,2.45,6.55,4.42,9.49,6.08c3.17,1.79,3.62,3.82,1.69,6.93c-2.8,4.5-5.66,9.03-7.73,13.88
			c-1.25,2.92-2.17,6.88-1.18,9.63c1.33,3.69,5.64,4.47,9.43,3.66c4.45-0.95,4.41,1.58,4.6,4.71c0.96,16.24,5.96,30.92,17.61,42.73
			c6.92,7.02,15.51,11.35,24.92,14.04c2.96,0.85,4.25,2.36,4.61,5.53c1.12,9.87,3.5,12.39,13.15,14.45
			c2.85,0.61,3.83,2.05,3.78,4.83c-0.11,7,0.11,14-0.09,20.99c-0.1,3.3,1.24,4.49,4.3,5.49c5.05,1.66,9.83,4.15,15.46,6.62
			c-2.12,2.36-3.19,3.54-4.5,4.99c-12.31-8.82-24.61-9.13-37.25,0.19c-1.07-1.24-2.14-2.48-3.51-4.06c3.8-4.6,8.96-6.73,14.48-7.75
			c4.1-0.76,5.59-2.52,5.27-6.69c-0.36-4.8-0.19-9.66-0.05-14.49c0.08-2.66-0.49-4.21-3.46-4.95c-7.89-1.97-11.71-7.85-13.07-15.38
			c-0.52-2.87-1.57-4.05-4.39-5.04c-24.62-8.58-39.4-28.22-42.3-54.48c-0.41-3.67-1.48-5.34-5.33-6.26
			c-9.88-2.35-13.19-9.76-8.92-19.06c2.34-5.1,5.03-10.04,7.91-15.75c-3.81-2.48-7.99-5.03-11.95-7.88c-1.3-0.94-2.96-2.78-2.8-3.97
			c0.18-1.27,2.17-2.65,3.66-3.28c3.97-1.69,8.16-2.86,12.14-4.54c1.31-0.55,2.99-1.92,3.13-3.09c0.13-1.07-1.32-2.79-2.5-3.5
			c-5.45-3.25-9.15-9.56-8.24-14.63c1.31-7.26,5.91-11.42,13.44-12.51c1.4-0.2,3.76-1.31,3.81-2.12C27.96,6.57,32.53,3.87,37,1
			C40,1,43,1,46,1z"/>
		<path class="st0" d="M91.39,135.46c0.83,1.38,1.66,2.76,2.48,4.12c-7.2,5.11-16.87,4.54-24.03-1.27
			c-6.69-5.42-9.22-15.41-5.94-23.38c4.66-11.32,14.8-16.12,27.22-12.71c12.56,3.45,23.4,10.09,33.25,18.46
			c2.49,2.12,4.9,4.34,7.66,6.8c-1.56,1.58-2.83,2.86-3.5,3.54c-9.06-6.23-17.35-12.58-26.29-17.83
			c-5.01-2.94-10.97-4.69-16.73-5.84c-7.48-1.5-14.42,3.75-16.76,11.54c-1.86,6.19,1.49,14.27,8.15,16.69
			c4.17,1.52,9.12,0.91,13.71,1.25C90.87,136.38,91.13,135.92,91.39,135.46z"/>
	</g>
</g>
</svg>
