<?xml version="1.0" encoding="utf-8"?>
<!-- Generator: Adobe Illustrator 23.0.1, SVG Export Plug-In . SVG Version: 6.00 Build 0)  -->
<svg version="1.1" id="Слой_1" xmlns="http://www.w3.org/2000/svg" xmlns:xlink="http://www.w3.org/1999/xlink" x="0px" y="0px"
	 viewBox="0 0 900 560" style="enable-background:new 0 0 900 560;" xml:space="preserve">
<style type="text/css">
	.st0{fill:#FFFFFF;}
</style>
<g>
	<g>
		<path class="st0" d="M6,302.2c0-22.5-0.17-44.99,0.08-67.49c0.1-9.27,1.66-18.54,1.55-27.79c-0.19-15.91,20.15-27.15,32.42-26.01
			c11.42,1.06,22.02,4.45,31.11,11.04c16.26,11.78,31.96,24.32,47.85,36.62c4.86,3.76,9.57,7.72,14.3,11.65
			c3.33,2.77,6.51,2.49,9.97,0.12c25.21-17.27,50.05-35.12,75.8-51.53c26.58-16.93,54.04-32.49,81.19-48.53
			c3.56-2.1,5.73-4.44,6.16-8.83c3.99-40.96,23.98-72.44,57.28-95.98c19.44-13.74,40.89-22.64,64.27-26.74
			c6.69-1.17,13.6-1.64,20.39-1.5c35.64,0.74,71.3,1.17,106.89,2.93c21.27,1.05,42.3,4.82,61.51,15.13
			c9.76,5.24,18.05,11.92,22.2,22.6c2,5.15,6.25,6.91,11.04,8.26c15.94,4.52,32.15,8.33,47.71,13.91
			c31.19,11.2,59.21,28.15,84.98,49c16.76,13.55,32.03,28.54,45.79,45.05c23.91,28.67,42.81,60.35,55.45,95.54
			c4.53,12.61,7.98,25.63,11.63,38.54c0.74,2.61,0.78,5.75,0.11,8.39c-10.27,40.55-28.18,77.22-56.24,108.53
			c-36.06,40.24-81.57,64.68-133.09,78.81c-38.24,10.49-77.33,13.23-116.79,12.31c-10.83-0.25-21.66-0.25-32.49-0.38
			c-3.13-0.04-6,0.2-7.08,3.98c-5.36,18.74-20.15,27.17-36.88,33.24c-14.4,5.22-29.56,6.29-44.68,7.34
			c-27.12,1.87-54.27,2.68-81.37-0.22c-30.3-3.25-51.3-20.25-66.09-45.84c-9.35-16.17-12.1-34.35-14.28-52.48
			c-0.78-6.44-4.03-9.25-9.25-11.52c-16.57-7.21-33.39-13.93-49.51-22.03c-33.07-16.62-65.76-34-98.61-51.08
			c-1.33-0.69-2.65-1.4-3.98-2.07c-8.11-4.08-11.17-3.39-17.78,2.68c-18.13,16.67-37.03,32.42-58.17,45.16
			c-9.75,5.88-20.39,9.72-32.07,9.56c-13.67-0.19-26.46-8.63-28.75-19.68c-1.44-6.95-2.39-14.13-2.47-21.21
			C5.83,355.19,6,328.69,6,302.2z M26.14,307.53c-0.04,0-0.08,0-0.12,0c0,2,0,4,0,6c0,26.16,0.03,52.33-0.03,78.49
			c-0.01,4.35,0.74,8.3,5.54,9.36c3.64,0.8,7.6,1.39,11.22,0.82c13.27-2.11,23.95-9.85,34.06-17.87
			c17.08-13.55,33.63-27.78,50.18-41.98c5.18-4.44,9.63-5.42,15.92-1.7c18.17,10.73,36.53,21.17,55.14,31.13
			c49.87,26.68,101.64,49.1,155.02,67.8c63.14,22.12,127.55,38.77,194.4,44.63c37.24,3.27,74.5,4.17,111.67-1.13
			c34.99-4.99,68.49-14.81,99.95-31.09c31.55-16.33,58.16-38.52,79.37-67.15c17.68-23.86,28.86-50.73,37.22-78.94
			c0.59-1.98,0.75-4.45,0.11-6.36c-5.98-17.77-10.99-35.99-18.56-53.07C837,200.75,806.7,162.53,767.3,131.65
			c-22.51-17.64-47.12-31.66-73.61-42.5c-42-17.2-85.97-18.44-130.19-15.54c-33.45,2.2-66.08,9.83-98.26,19.2
			c-63.52,18.48-123.41,45.47-180.23,78.98c-35.5,20.94-69.74,44.03-104.42,66.35c-13.43,8.64-26.54,17.78-39.75,26.76
			c-3.15,2.14-5.94,2.31-8.99-0.28c-4.05-3.45-8.34-6.62-12.5-9.96c-17.64-14.17-35.06-28.62-53-42.4
			c-7.61-5.85-16.2-10.58-26.18-11.48c-8.21-0.74-12.66,3.15-13.07,11.3c-0.37,7.48-0.89,14.97-0.92,22.46
			C26.07,258.87,26.14,283.2,26.14,307.53z M488.46,25.03c-0.04,0.7-0.07,1.4-0.11,2.09c-13.65,0-27.32-0.43-40.95,0.09
			c-26.54,1.01-50.9,8.71-72.58,24.54c-19.65,14.35-33.68,32.92-43.2,55.11c-1.49,3.47-2.99,7.7,0.43,10.1
			c2.35,1.65,6.54,1.71,9.62,1.08c4.32-0.89,8.45-2.93,12.54-4.76c38.71-17.33,78.09-32.79,119.19-43.64
			c28.85-7.62,58.01-13.33,87.77-15.76c12.94-1.06,25.93-1.63,38.84-2.95c2.1-0.22,5.28-3.03,5.5-4.93
			c0.22-1.93-2.19-5.46-4.16-6.12c-8.33-2.76-16.81-5.81-25.45-6.75C546.8,29.97,517.61,27.67,488.46,25.03z M434.95,533.29
			c19.21-1.72,38.87-2.59,58.2-5.58c10.22-1.58,19.99-6.54,29.69-10.63c3.63-1.53,6.45-5.06,5.17-9.76
			c-1.15-4.24-4.87-5.04-8.58-5.59c-7.4-1.1-14.86-1.91-22.21-3.27c-39.67-7.31-78.82-16.85-117.46-28.41
			c-13.64-4.08-27.01-9.07-40.64-13.2c-7.88-2.39-11.87,1.49-10.44,9.68c0.83,4.73,2.05,9.43,3.48,14.02
			c8.5,27.17,25.83,45.22,54.61,49.46C402.5,532.33,418.57,532.26,434.95,533.29z"/>
		<path class="st0" d="M661.55,140.67c2.95,2.38,6.08,4.19,8.21,6.81c2.51,3.1,1.46,6.58-0.99,9.58
			c-8.31,10.19-17.07,20.05-24.82,30.65c-25.1,34.35-34.89,72.94-31.24,115.24c3.61,41.81,22.38,76.31,50.26,106.6
			c1.91,2.08,3.72,4.27,5.38,6.56c4.15,5.72,3.86,9.18-0.92,13.51c-3.6,3.26-8.8,3.36-12.91-1.1c-9.56-10.38-19.6-20.54-27.65-32.05
			c-19.89-28.41-32.39-59.9-34.62-94.84c-3.94-61.7,18.25-113.22,61.83-156.16C655.86,143.72,658.36,142.69,661.55,140.67z"/>
		<path class="st0" d="M752.08,281.26c-17.99,0.23-25.36-13.82-24.91-24.55c0.6-14.48,11.28-25.29,24.68-24.69
			c13.74,0.62,24.87,12.53,24.33,26.03C775.69,270.2,763.73,281.71,752.08,281.26z"/>
	</g>
</g>
</svg>
