<?xml version="1.0" encoding="utf-8"?>
<!-- Generator: Adobe Illustrator 23.0.1, SVG Export Plug-In . SVG Version: 6.00 Build 0)  -->
<svg version="1.1" id="Слой_1" xmlns="http://www.w3.org/2000/svg" xmlns:xlink="http://www.w3.org/1999/xlink" x="0px" y="0px"
	 viewBox="0 0 807 796.78" style="enable-background:new 0 0 807 796.78;" xml:space="preserve">
<style type="text/css">
	.st0{fill:#FFFFFF;}
</style>
<g>
	<g>
		<path class="st0" d="M808,72c-1.5,10.68-2.47,21.46-4.6,32.01c-8.03,39.76-23.35,76.96-40.82,113.33
			c-17.25,35.91-37.13,70.35-58.67,103.85c-0.97,1.51-1.88,3.05-2.55,4.15c2.93,1.93,6.38,3.14,8.01,5.58
			c1.58,2.36,1.74,5.96,1.74,9.02c0.08,128.82,0.09,257.64,0.05,386.47c-0.01,31.7-19.31,57.33-49.05,64.87
			c-5.74,1.46-11.85,2.06-17.79,2.07c-185.65,0.1-371.3,0.11-556.95,0.07c-38.73-0.01-67.14-28.53-67.15-67.35
			c-0.04-128.82-0.02-257.64-0.01-386.47c0-8.98,1.86-11.41,10.57-13.42c-4.7-16.74-5.44-33.61-1.13-50.59
			c4.31-16.99,12.92-31.54,26.23-45.09c-11.42,2.19-21.32,4.09-31.21,6c-4.41,0.85-8.8,1.85-13.24,2.51
			c-5.51,0.81-7.72-0.96-8.56-6.38c-4.34-28.04,23.11-50.76,49.99-41.37c1.54,0.54,3.03,1.18,5.94,2.33
			c-3.31-6.45-6.05-11.79-8.79-17.13c-0.84-1.63-1.8-3.21-2.47-4.9c-1.41-3.52-0.97-6.67,2.7-8.49c3.67-1.83,6.56-0.33,8.37,3.01
			c3.78,7.01,7.36,14.12,11.51,22.13c0.77-2.66,1.27-4.42,1.79-6.17c7.9-26.81,41.63-36.11,62.11-17.12
			c4.48,4.15,4.6,7.55,0.16,11.82c-10.06,9.69-20.19,19.31-31.17,29.79c36.55-5.1,66.06,6.1,89.68,33.08
			c36.2-17.22,70.56-14.25,103.43,10.01c0.77-1.79,1.49-3.37,2.13-4.99c16.96-42.75,37.84-83.34,66.17-119.8
			c12.93-16.64,27.28-31.91,44.4-44.38c1.61-1.18,3.24-2.36,4.96-3.36c6.31-3.66,12.38-1.13,14.42,5.88
			c1.14,3.93,2.4,7.83,4.06,13.23c2.86-3.37,5.07-5.37,6.53-7.82c3.67-6.13,7.15-12.39,10.44-18.73c3.47-6.69,6.32-8.34,14.03-7.37
			c19.75,2.48,32.98,14.06,42.32,30.75c9.44,16.87,13.36,35.39,15.37,54.38c0.7,6.58,1.01,13.21,1.63,21.49
			c1.89-2.3,3.04-3.79,4.28-5.2c31.12-35.09,64.06-68.31,100.67-97.74c26.42-21.24,54.02-40.69,85.57-53.75
			c12.03-4.98,24.43-8.75,37.58-9.44C780.7,1.18,801.12,17.57,806,47.25c0.75,4.57,1.34,9.16,2,13.75C808,64.67,808,68.33,808,72z
			 M38.98,705.82c0,6.71,0,12.84,0,18.97c0.03,30.37,19.68,50.09,49.97,50.09c184.49,0.01,368.99,0.01,553.48,0
			c30.35,0,50.19-19.67,50.2-49.95c0.04-124.66,0.02-249.33,0-373.99c0-1.78-0.16-3.56-0.25-5.43c-52.06,0-103.64,0-155.42,0
			c0,20.97,0.25,41.62-0.12,62.25c-0.16,8.95-0.72,18.06-2.58,26.78c-12.24,57.31-60.25,96.27-119.14,96.73
			c-37,0.29-74,0.24-111-0.08c-9.09-0.08-18.38-0.92-27.22-2.94c-56.13-12.82-94.57-61.17-94.85-118.77c-0.09-19-0.02-38-0.02-57
			c0-2.27,0-4.55,0-7c-47.82,0-95.22,0-142.83,0c0,76.55,0,152.79,0,229.51c2.02,0,3.81,0,5.61,0c29.83,0,59.66-0.02,89.5,0.02
			c6.19,0.01,10.32,3.73,10.47,9.08c0.15,5.26-3.99,9.26-10.03,9.62c-1.33,0.08-2.67,0.03-4,0.03c-28.5,0-57,0-85.5,0
			c-1.94,0-3.89,0-6.03,0c0,12.65,0,24.72,0,37.25c5.88,0,11.5,0,17.13,0c26,0,52-0.03,78,0.03c6.16,0.01,10.31,3.81,10.43,9.14
			c0.12,5.25-4.03,9.25-10.06,9.61c-1.49,0.09-3,0.03-4.5,0.03c-28.5,0-57,0-85.5,0c-1.78,0-3.55,0-5.49,0c0,12.66,0,24.72,0,37.22
			c2.24,0,4.2,0,6.16,0c47.17,0,94.33,0,141.5,0c1.33,0,2.67-0.05,4,0.02c5.77,0.26,9.81,4.02,9.91,9.18
			c0.1,5.11-3.88,9.1-9.59,9.54c-1.49,0.12-3,0.04-4.5,0.04c-47,0-94,0-141,0C43.76,705.82,41.76,705.82,38.98,705.82z
			 M543.22,326.66c-3.02-10.47-6.06-20.11-8.55-29.88c-3.17-12.43-5.97-24.98-4.67-37.97c0.47-4.67,2.07-8.93,6.96-10.64
			c4.66-1.63,8.81,0.22,11.64,3.74c4.47,5.54,9.45,11.08,12.23,17.48c7.55,17.35,14.22,35.09,20.83,52.82
			c1.28,3.45,2.61,4.56,6.19,4.54c28.66-0.14,57.32-0.13,85.98,0c3.25,0.01,5.07-1.11,6.83-3.75
			c21.67-32.61,41.93-66.05,59.52-101.05c20.15-40.09,37.91-81.1,46.23-125.53c3.05-16.28,4.62-32.7,0.67-49.09
			c-4.66-19.3-17.89-28.21-37.68-25.9c-13.06,1.52-25.29,5.63-37.11,11.15c-31.22,14.57-58.63,34.89-84.51,57.27
			c-78.01,67.46-142.08,146.79-197.49,233.41c-0.55,0.87-0.8,1.93-1.39,3.41c13.75,0,26.89,0.08,40.02-0.11
			c1.55-0.02,3.32-1.29,4.58-2.43c15.7-14.24,36.64-14.15,52.35,0.23c1.14,1.04,2.73,2.09,4.18,2.2
			C534.17,326.85,538.34,326.66,543.22,326.66z M257.09,345.42c0,17.18-0.6,33.84,0.13,50.45c1.36,30.86,26.56,58.11,57.38,59.94
			c28.55,1.7,57.31,1.83,85.88,0.51c30.88-1.43,56.05-23.2,60.07-52c2.69-19.28,1.66-39.07,2.3-58.89
			C393.82,345.42,325.59,345.42,257.09,345.42z M360.32,512.07c0,0.25,0,0.5,0,0.75c17.49,0,34.99,0.17,52.48-0.08
			c6.97-0.1,14-0.63,20.87-1.78c43.2-7.26,78.82-43.32,83.07-86.88c2.43-24.93,1.28-50.24,1.09-75.37
			c-0.06-7.8-5.32-13.18-12.79-15.62c-11.83-3.87-23.78,5.09-24.06,17.97c-0.36,16.65,0.31,33.36-1.01,49.93
			c-3.11,38.93-37.77,72.55-76.8,73.9c-29.28,1.01-58.66,1.02-87.94-0.04c-38.42-1.38-73.07-35.09-76.13-73.44
			c-1.32-16.56-0.7-33.28-1.02-49.93c-0.21-10.99-8.47-19.45-18.76-19.33c-10.16,0.12-18.31,8.42-18.37,19.18
			c-0.11,21.32-0.04,42.65,0.07,63.97c0.02,3.31,0.55,6.63,0.96,9.93c5.66,44.81,45.83,83.79,90.91,86.59
			C315.29,513.22,337.84,512.07,360.32,512.07z M364.25,326.34c-5.16-11.02-2.7-20.92,2.05-30.41
			c8.88-17.76,22.75-31.49,37.17-44.68c3.27-2.99,7.85-1.82,9.67,1.92c1.72,3.54-0.18,5.92-2.5,8.35
			c-8.04,8.43-16.63,16.45-23.75,25.6c-5.21,6.69-9.41,14.58-12.29,22.57c-3.37,9.35,2.83,20.05,16.36,16.48
			c4.33-1.14,8.72-2.61,13.13-2.79c3.58-0.15,5.22-1.62,6.97-4.32c10.33-15.92,20.64-31.86,31.32-47.54
			c8.51-12.51,17.54-24.66,26.25-36.85c-4.08-1.62-8.4-2.64-11.92-4.91c-3.65-2.35-6.54-5.89-9.87-9.01
			c-11.4,5.76-19.75,3.34-25.7-8.09c-1.9-3.65-3.07-7.7-4.36-11.64c-0.81-2.47-1.24-5.07-1.91-7.9
			c-11.69,6.71-23.45,9.88-36.09,4.32c-12.58-5.53-17-17.31-21.43-29.68c-1.09,1.5-1.71,2.24-2.21,3.06
			c-17.53,28.81-31.78,59.19-43.25,90.87c-0.59,1.62-0.09,4.25,0.92,5.72c6.75,9.85,12.22,20.33,14.68,32.02
			c1.83,8.71,2.53,17.67,3.78,26.9C341.72,326.34,352.61,326.34,364.25,326.34z M119.87,326.67c21.32,0,42.63-0.15,63.94,0.12
			c4.36,0.05,6.11-1.49,7.3-5.39c3.87-12.69,4.57-25.45,1.89-38.45c-8.57-41.57-51.32-67.78-92.47-56.63
			c-41.31,11.19-65.07,55.22-51.6,95.37c1.25,3.73,2.87,5.15,7,5.1C77.24,326.54,98.56,326.67,119.87,326.67z M413.85,100.35
			c-0.6,0.33-1.06,0.49-1.41,0.79c-17.85,14.79-32.37,32.53-45.43,51.54c-0.66,0.97-1.22,2.63-0.85,3.59
			c2.84,7.27,5.45,14.69,9.07,21.58c4.41,8.39,13.03,12.27,22,9.14c6.55-2.29,12.22-6.99,18.46-10.3c2.29-1.22,5.73-2.83,7.42-1.94
			c2,1.06,3.31,4.5,3.81,7.12c1.15,6.01,0.92,12.35,2.63,18.16c1.22,4.13,4.68,7.6,7.13,11.37c3.09-2.82,6.51-5.36,9.18-8.54
			c2.3-2.75,4.34-5.18,8.25-3.94c4.02,1.27,4.33,4.42,3.98,8.05c-0.69,7.23,1.61,11.25,7.45,13.57c6.53,2.6,13.12,1.15,17.18-3.87
			c6.07-7.51,12.2-14.98,18.04-22.66c1.39-1.82,2.47-4.45,2.44-6.68c-0.22-14.13-0.14-28.31-1.42-42.36
			c-1.41-15.47-5.26-30.49-13.22-44.12c-4.36-7.47-10-13.64-17.96-17.5c-4.06-1.97-6.21-1.84-8.93,2.77
			c-4.78,8.07-10.12,16.19-16.81,22.66c-8.78,8.51-20.34,6.41-27.68-3.44C415.99,103.74,414.97,102.04,413.85,100.35z
			 M212.03,313.76c1.75,0,3.21,0.09,4.66-0.01c10.9-0.75,20.2,2.8,28.44,9.92c1.9,1.64,4.87,2.84,7.37,2.88
			c17.83,0.24,35.66-0.03,53.49,0.24c4.6,0.07,5.97-1.22,5.86-5.84c-0.71-30.07-19.63-57.64-47.75-68.47
			c-20.63-7.94-40.97-6.78-61.18,3.06C212.24,274.09,215.09,293.38,212.03,313.76z M15.11,225.66c16.22-3.14,31.92-6.18,47.72-9.25
			c-4.18-10.27-15.05-16-26.66-14.45C25.28,203.42,16.47,212.99,15.11,225.66z M86.37,205.02c11.86-11.31,23.43-22.35,35.15-33.53
			c-10.47-6.36-23.41-4.79-31.38,3.28C82.17,182.85,80.48,195.17,86.37,205.02z M542.36,264.14c-0.11,0.51-0.32,0.96-0.29,1.4
			c1.37,20.46,7.33,39.83,14.18,58.97c0.34,0.94,1.85,1.97,2.88,2.05c3.41,0.26,6.86,0.1,10.37,0.1
			C566.89,309.63,550.22,271.41,542.36,264.14z"/>
		<polygon class="st0" points="371.28,880.49 371.61,880.36 371.58,880.69 		"/>
		<polygon class="st0" points="410.54,880.26 410.66,880.61 410.35,880.57 		"/>
		<path class="st0" d="M239.11,696.38c-0.02,5.17-4.09,9.25-9.19,9.23c-5.1-0.03-9.13-4.14-9.11-9.3c0.02-5.12,4.14-9.26,9.18-9.23
			C235.05,687.1,239.13,691.27,239.11,696.38z"/>
		<path class="st0" d="M583.97,195.43c0.73-4.74,0.92-9.65,2.31-14.19c2.29-7.47,8.77-9.48,14.85-4.49
			c3.79,3.11,7.18,7.03,9.81,11.17c12.24,19.29,19.98,40.61,25.82,62.49c3.45,12.94,5.2,26.37,7.04,39.67
			c0.54,3.9-0.68,8.32-2.08,12.14c-2.26,6.15-8.09,8-13.34,4.04c-3.9-2.94-7.43-6.75-10.16-10.82
			c-10.65-15.91-17.14-33.77-23.08-51.81C589.99,227.98,585.43,212.15,583.97,195.43z M631.2,291.33
			c-3.43-36.08-14.43-69.59-33.9-100.23C600.75,227.17,611.72,260.69,631.2,291.33z"/>
		<path class="st0" d="M703.06,219.25c-0.87,4.87-1.18,9.93-2.75,14.56c-2.2,6.5-8.28,8.61-13.51,4.24
			c-4.87-4.07-9.29-9.15-12.54-14.59c-11.85-19.84-19.63-41.47-25.12-63.8c-3-12.2-4.66-24.78-6.11-37.28
			c-0.73-6.29,0.02-13.33,7.57-15.7c7.26-2.28,12.02,2.98,15.08,8.13c6.76,11.39,13.36,23.02,18.47,35.2
			c8.88,21.18,15.93,43.03,18.03,66.14c0.09,0.99,0.12,1.99,0.17,2.99C702.59,219.16,702.83,219.2,703.06,219.25z M655.78,122.85
			c3.31,36.14,14.46,69.63,33.84,100.33C686.29,187.05,675.17,153.55,655.78,122.85z"/>
		<path class="st0" d="M81.48,252.11c4,0.19,6.14,3.63,4.76,6.54c-0.48,1.02-1.32,1.9-2.1,2.75c-11.37,12.43-15.97,27-13.69,43.66
			c0.48,3.49-0.21,6.24-3.93,6.73c-3.54,0.47-4.93-2.21-5.34-5.29c-2.65-19.85,2.63-37.21,16.53-51.76
			C78.9,253.5,80.58,252.72,81.48,252.11z"/>
		<path class="st0" d="M459.45,158.5c-5.82,2.74-11.06,5.21-16.3,7.69c-3.06,1.45-5.99,1.72-7.54-1.91
			c-1.46-3.41,0.81-5.18,3.62-6.5c5.24-2.47,10.44-5.02,16.12-7.76c-2.57-5.47-4.98-10.69-7.48-15.87c-1.43-2.96-2.2-6.05,1.3-7.77
			c3.73-1.83,5.74,0.66,7.21,3.91c2.33,5.12,4.86,10.14,7.5,15.6c5.34-2.52,10.43-4.83,15.45-7.31c3.07-1.52,6.25-2.72,8.16,1.1
			c2.05,4.12-1.07,5.93-4.3,7.45c-4.95,2.32-9.86,4.75-15.21,7.33c2.55,5.38,4.95,10.61,7.49,15.77c1.57,3.18,2.27,6.23-1.65,7.97
			c-3.71,1.65-5.42-1.05-6.8-3.93C464.58,169.19,462.14,164.11,459.45,158.5z"/>
		<path class="st0" d="M296.78,310.87c-0.92,0.95-2.11,3.14-3.76,3.57c-1.38,0.36-3.42-1.17-4.92-2.21
			c-0.67-0.46-0.77-1.78-1.07-2.72c-5.04-15.81-15.12-27.03-30.44-33.48c-0.76-0.32-1.93-0.48-2.19-1.05
			c-0.89-1.91-2.32-4.19-1.87-5.89c0.32-1.22,3.48-2.68,5.1-2.4c15.56,2.67,37.57,26.98,38.9,42.58
			C296.52,309.44,296.56,309.6,296.78,310.87z"/>
	</g>
</g>
</svg>
