<?xml version="1.0" encoding="utf-8"?>
<!-- Generator: Adobe Illustrator 23.0.1, SVG Export Plug-In . SVG Version: 6.00 Build 0)  -->
<svg version="1.1" id="Слой_1" xmlns="http://www.w3.org/2000/svg" xmlns:xlink="http://www.w3.org/1999/xlink" x="0px" y="0px"
	 viewBox="0 0 240 219" style="enable-background:new 0 0 240 219;" xml:space="preserve">
<style type="text/css">
	.st0{fill:#FFFFFF;}
</style>
<g>
	<g>
		<path class="st0" d="M118,220c-18.15-3.67-26.92-16.34-32.59-32.74C73.57,153.04,61.21,119,49.05,84.89
			c-0.54-1.53-1.17-3.02-2.06-5.32c-11.8,14.32-23.16,28.11-34.82,42.26c10.09,6.84,20.44,8.11,31.98,3.69
			c1.06,2.11,2.05,4.08,3.03,6.02c-14.21,9.63-36.19,1.93-45.68-8.77c12.56-15.3,25.19-30.69,38.14-46.47
			c-10.69-12.54-18.4-26.23-13.7-43.55c3.69-13.6,13-22.88,24.62-31.04c1.36,2.27,2.58,4.3,3.79,6.3
			c-31.61,23.59-24.22,46.56-8.92,62.37c17.06-28.82,43.08-40.58,75.75-40.52c32.46,0.06,58.39,11.65,75.32,40.34
			c19.95-19.69,17.88-42.85-8.87-62.05c1.18-1.99,2.4-4.05,3.85-6.48c12.57,8.84,22.66,19.08,25.47,34.59
			c2.88,15.92-4.61,28.34-14.53,40.01c12.81,15.6,25.45,30.99,38.02,46.3c-10.39,12.71-31.68,17.04-45.59,9.29
			c0.94-1.99,1.89-4.01,2.99-6.33c11.32,4.36,21.75,3.25,32.07-3.67c-11.53-14.03-22.88-27.84-34.75-42.28
			c-1.21,3.13-2.25,5.64-3.16,8.21c-12.09,33.96-24.25,67.89-36.19,101.89C150.33,205.31,141,216.6,124,220C122,220,120,220,118,220
			z M121.69,36.97c-8.34,1.06-16.13,1.76-23.81,3.08c-19.56,3.36-33.03,15.57-43.9,31.2c-0.77,1.11-0.38,3.47,0.16,5
			c13.36,37.73,26.7,75.46,40.37,113.08c1.83,5.04,4.77,10,8.31,14.02c10.44,11.9,27,11.79,36.92-0.57
			c4.25-5.29,7.22-11.92,9.57-18.38c13.07-35.89,25.8-71.9,38.55-107.91c0.59-1.67,0.97-4.25,0.11-5.46
			c-10.43-14.76-23.01-26.87-41.58-30.46C138.09,38.97,129.65,38.11,121.69,36.97z"/>
	</g>
</g>
</svg>
