<?xml version="1.0" encoding="utf-8"?>
<!-- Generator: Adobe Illustrator 23.0.1, SVG Export Plug-In . SVG Version: 6.00 Build 0)  -->
<svg version="1.1" id="Слой_1" xmlns="http://www.w3.org/2000/svg" xmlns:xlink="http://www.w3.org/1999/xlink" x="0px" y="0px"
	 viewBox="0 0 612 735.6" style="enable-background:new 0 0 612 735.6;" xml:space="preserve">
<style type="text/css">
	.st0{fill:#FFFFFF;}
</style>
<g>
	<g>
		<path class="st0" d="M242.12,161.4c54,0,107.99,0,161.99,0c9.22,0,9.64-0.3,11.99-9.05c5.01-18.66,14.9-33.72,31.36-44.44
			c31.36-20.44,75.5-10.18,94.62,22.01c10.43,17.56,13,36.06,7.73,55.6c-3.68,13.65-13.13,23.21-23.97,31.55
			c-13.3,10.24-21.54,22.9-20.13,40.48c0.87,10.84,5.85,19.56,13.36,27.06c7.31,7.3,14.69,14.53,21.92,21.91
			c4.23,4.32,4.17,8.75-0.33,11.18c-1.66,0.89-4.23,0.46-6.29,0.09c-1.16-0.2-2.26-1.36-3.18-2.3c-9.06-9.3-18.38-18.37-27.04-28.02
			c-14.39-16.03-15.97-42.92-4.71-61.5c5.51-9.1,13.41-15.67,21.46-21.95c16.27-12.7,20.24-29.29,16.78-48.49
			c-6.47-35.97-46.14-55.71-79.96-38.3c-13.46,6.93-22.47,18.15-26.71,32.69c-8.21,28.19-15.99,56.51-24.06,84.74
			c-1.7,5.93-4.57,7.81-8.66,6.43c-4.3-1.45-5.55-4.96-3.92-10.74c4.11-14.53,8.22-29.05,12.27-43.59
			c2.53-9.08,0.54-11.72-8.7-11.72c-101.99-0.01-203.98,0-305.97,0c-3.33,0-7.63-0.52-8.18,3.65c-0.36,2.71,1.24,6.49,3.23,8.57
			c11.54,12.02,23.61,23.52,35.15,35.54c3.92,4.09,7.98,5.48,13.57,5.46c52.83-0.2,105.66-0.12,158.49-0.12
			c1.5,0,3.01-0.11,4.5,0.05c3.92,0.41,6.59,2.38,6.97,6.52c0.32,3.57-2.74,6.62-6.94,7.07c-1.48,0.16-3,0.05-4.5,0.05
			c-45.66,0-91.33-0.05-136.99,0.14c-2.38,0.01-6.26,1.57-6.75,3.21c-0.66,2.22,1.27,5.23,2.13,7.88c0.09,0.28,0.45,0.47,0.69,0.71
			c13.29,13.07,26.62,26.09,39.86,39.21c17.4,17.25,34.72,34.57,52.07,51.86c19.6,19.53,44.41,23.63,68.89,10.86
			c4.76-2.48,9.02-6.27,12.88-10.08c42.54-42.01,84.94-84.15,127.41-126.23c10.96-10.86,22.12-21.52,32.85-32.6
			c1.86-1.92,3.49-6.04,2.64-8.03c-0.84-1.97-4.88-3.22-7.67-3.57c-4.6-0.57-9.32-0.07-13.98-0.19c-4.47-0.11-8.02-3.06-8.13-6.55
			c-0.12-3.5,3.27-6.89,7.71-6.95c10.33-0.16,20.67-0.21,30.99,0.11c5.81,0.18,9.96,3.47,12.21,8.86c2.05,4.9,1.14,9.42-2.26,13.45
			c-1.39,1.65-2.73,3.36-4.25,4.87c-52.85,52.48-105.71,104.96-158.6,157.4c-8.03,7.96-16.05,15.93-24.34,23.61
			c-3.13,2.9-4.26,6.13-4.21,10.13c0.05,4.5,0.01,9,0.01,13.5c0,77.49,0.06,154.99-0.11,232.48c-0.01,6.59,2.05,10.09,8.44,12.61
			c21.72,8.58,43.23,17.72,64.67,26.99c3.93,1.7,7.75,4.48,10.62,7.67c7.21,7.99,0.81,22.12-11.36,23.68
			c-1.15,0.15-2.33,0.09-3.5,0.09c-66.16,0-132.32-0.03-198.48,0.05c-6.53,0.01-11.76-2.11-15.37-7.52
			c-5.37-8.07-1.97-18.31,7.78-22.52c17.33-7.49,34.81-14.64,52.23-21.95c5.96-2.5,11.81-5.27,17.86-7.53
			c4.62-1.72,6.13-4.63,6.11-9.48C256.14,588,256.2,548,256.2,508c0-42.33-0.06-84.66,0.08-126.99c0.01-4.51-1.27-7.79-4.49-10.98
			c-29.94-29.67-59.69-59.53-89.58-89.24c-31.05-30.87-62.2-61.64-93.3-92.47c-1.41-1.4-2.8-2.87-3.97-4.47
			c-6.76-9.28-1.74-20.89,9.71-22.21c3.79-0.44,7.65-0.23,11.48-0.23C138.13,161.4,190.13,161.4,242.12,161.4z M303.9,510.73
			c0-41.65,0-83.3,0-124.95c0-8.21-1.83-9.87-10.1-9.62c-4.49,0.14-8.99,0.19-13.47,0.03c-9.11-0.31-10.51,0.95-10.51,10.01
			c0,82.97-0.06,165.94,0.12,248.91c0.01,6.06-1.95,9.58-7.54,11.85c-19.49,7.92-38.88,16.09-58.31,24.17
			c-3.35,1.39-6.66,3.03-5.75,7.49c0.76,3.75,3.62,4.66,7.19,4.66c54.31-0.05,108.63-0.05,162.94,0c3.59,0,6.37-0.97,7.1-4.75
			c0.74-3.83-1.79-5.77-4.92-7.06c-19.57-8.12-39.14-16.23-58.73-24.31c-6.82-2.81-8.01-4.48-8.01-11.96
			C303.9,593.7,303.9,552.22,303.9,510.73z"/>
		<path class="st0" d="M354.99,234.99c0,3.36-3.58,7.11-6.76,6.62c-3.63-0.56-6.22-2.86-6.21-6.65c0.01-3.78,2.57-6.09,6.23-6.63
			C351.4,227.87,355,231.66,354.99,234.99z"/>
	</g>
</g>
</svg>
