<?xml version="1.0" encoding="utf-8"?>
<!-- Generator: Adobe Illustrator 23.0.1, SVG Export Plug-In . SVG Version: 6.00 Build 0)  -->
<svg version="1.1" id="Слой_1" xmlns="http://www.w3.org/2000/svg" xmlns:xlink="http://www.w3.org/1999/xlink" x="0px" y="0px"
	 viewBox="0 0 981 912" style="enable-background:new 0 0 981 912;" xml:space="preserve">
<style type="text/css">
	.st0{fill:#FFFFFF;}
</style>
<g>
	<g>
		<path class="st0" d="M7,590.8c0-68.67,0.12-137.33-0.05-206c-0.09-37.53,5.98-73.69,21.51-108.12
			c13.4-29.69,26.44-59.55,39.24-89.5c8.62-20.18,16.89-40.55,20.05-62.51c0.76-5.25,1.5-10.5,2.13-15.76
			c0.52-4.33-1.99-7.47-6.45-7.81c-3.31-0.26-6.66-0.09-10-0.09c-10.1-0.02-14.24-3.53-14.36-13.62c-0.27-22-0.19-44,0.02-66
			c0.04-4.04,0.91-8.04,4.48-11.17c2.58-2.26,4.94-3.29,8.36-3.28c81,0.09,162,0.07,243,0.07c7.03,0,11.87,4.48,12.01,11.59
			c0.42,20.79,0.76,41.59,0.97,62.39c0.04,3.96-0.49,7.95-1.08,11.87c-0.68,4.53-5.24,7.94-10.65,8.12c-4,0.14-8.01-0.1-12,0.08
			c-4.86,0.22-7.84,3.27-7.09,7.7c2.62,15.53,4.19,31.39,8.58,46.41c5.53,18.94,13.05,37.35,20.43,55.69
			c10.73,26.67,22.53,52.92,33.08,79.66c8.48,21.52,15.32,43.65,17.74,66.81c1.38,13.18,2.04,26.43,3.06,39.65
			c0.3,3.97,0.29,8.03,1.23,11.84c0.52,2.1,2.47,5.01,4.21,5.35c2.27,0.45,5.51-0.64,7.4-2.2c9.95-8.22,19.01-17.65,29.5-25.07
			c18.94-13.39,39.42-14.3,60.33-4.19c3.15,1.52,6.24,3.15,9.39,4.67c6.08,2.94,9.06,1.9,12.14-3.97
			c8.33-15.85,16.63-31.69,27.84-45.82c16.06-20.24,35.13-36.52,59.3-46.3c2.28-0.92,4.81-1.67,7.24-1.72
			c9.62-0.19,19.32-0.81,28.86,0.12c14.22,1.39,25.7,9.62,36.79,17.74c21.53,15.75,37.43,36.4,50.01,59.75
			c1.57,2.91,3.46,5.65,5.36,8.36c3.53,5.05,8.76,5.59,13.87,3.86c23.33-7.92,43.49-1.25,61.94,13.1
			c17.1,13.31,29.96,30.28,40.88,48.82c12.81,21.75,22.5,44.86,29.66,69.01c1.82,6.13,2.74,12.71,2.91,19.11
			c0.41,15.49,0.11,31,0.14,46.5c0.02,6.93,2.06,9,8.92,9.02c14.33,0.04,28.68-0.29,43,0.13c7.75,0.23,15.68,0.83,23.13,2.8
			c16.81,4.44,30.15,21.33,30.73,39.45c0.39,12.22-0.05,24.67-2.01,36.7c-2.13,13.05-19.64,30.18-34.85,30.94
			c-13.92,0.69-27.84,1.46-41.77,1.94c-8.17,0.28-9.39,1.43-10.2,9.35c-3.4,33-7.89,65.83-15.17,98.23
			c-4.9,21.79-10.44,43.44-19.81,63.75c-4.74,10.28-11.26,19.83-17.81,29.13c-2.14,3.04-6.68,5.06-10.51,6.1
			c-5.54,1.51-11.42,2.22-17.18,2.39c-19.79,0.57-39.6,1.22-59.38,0.94c-14.56-0.21-29.13-1.62-43.65-2.91
			c-6.78-0.6-11.81-4.47-15.77-10.14c-19.27-27.61-32.87-58.02-44.51-89.41c-2.14-5.77-4.38-11.51-6.39-17.32
			c-1.22-3.53-3.66-5.09-7.17-5.02c-15.63,0.29-31.26,0.64-46.89,1.02c-4.21,0.1-6.03,3.02-7.26,6.52
			c-2.64,7.54-5.03,15.18-7.93,22.63c-6.93,17.82-13.42,35.85-21.38,53.2c-5.42,11.81-11.95,23.23-21.21,32.87
			c-5.34,5.56-11.58,7.65-18.71,7.68c-36.17,0.12-72.33,0.07-108.5,0.05c-9.34-0.01-14.55-6.5-19.28-13.1
			c-5-6.98-9.27-14.49-13.98-21.69c-4.15-6.35-7.12-6.65-12.83-1.91c-10.94,9.08-21.68,18.44-33.06,26.94
			c-8.18,6.11-17.43,9.07-28.27,8.99c-61.5-0.45-123-0.41-184.5-0.05c-11.47,0.07-21.66-1.72-31.66-7.76
			c-17.89-10.81-33.25-24.07-45.03-41.35c-9.77-14.32-15.38-30.5-20.59-46.83c-0.64-2-0.51-4.28-0.51-6.42
			C7,732.14,7,661.47,7,590.8z M606.01,697c-2,0-4-0.01-6,0c-80.96,0.33-161.92,0.66-242.87,1c-7.14,0.03-9.35,2.09-9.05,9.32
			c0.2,4.61,1.08,9.21,1.92,13.77c4.54,24.46,8.78,48.99,13.85,73.34c5.31,25.5,13.77,50.06,25.28,73.44
			c8.64,17.55,4.18,14.93,23.47,15.13c0.67,0.01,1.33,0,2,0c29.16,0,58.33,0.08,87.49-0.14c2.64-0.02,6.34-1.26,7.7-3.22
			c4.33-6.24,8.48-12.79,11.46-19.75c8.38-19.55,16.39-39.26,24.07-59.1c4.68-12.09,8.37-24.57,12.83-36.75
			c0.72-1.97,2.95-4.25,4.89-4.73c4.13-1.02,8.53-1.22,12.83-1.27c14.16-0.14,28.33-0.17,42.5-0.01c8.96,0.1,17.94,0.44,26.87,1.11
			c1.91,0.14,4.35,1.75,5.37,3.4c1.99,3.21,3.25,6.9,4.65,10.46c4.92,12.54,9.61,25.17,14.68,37.65
			c9.15,22.5,19.99,44.15,32.75,64.86c3.25,5.28,6.93,7.66,13.24,7.6c28.5-0.26,57,0.01,85.49-0.16
			c15.81-0.09,16.25,3.08,23.02-14.11c0.18-0.46,0.46-0.88,0.7-1.33c13.63-26.14,20.22-54.55,25.63-83.15
			c4.58-24.23,7.45-48.79,11.1-73.2c1.07-7.14-2.66-12.5-9.51-13.09c-6.28-0.54-12.59-1.03-18.88-1.04
			C757.66,696.97,681.83,697,606.01,697z M193.82,381c-50.99,0-101.98,0-152.97,0C31.51,381,30,382.48,30,391.61
			c0,78.65,0,157.3,0,235.95c0,8.86,1.59,10.44,10.52,10.44c66.65,0,133.31,0,199.96,0c1.17,0,2.34,0.05,3.5-0.02
			c4.34-0.26,6.7-2.57,7-6.92c0.16-2.32,0.05-4.67,0.4-6.96c2.93-18.94,24.8-40.96,47.88-39.22c9.61,0.73,19.32,0.2,28.98,0.08
			c5.38-0.07,7.55-2.31,7.74-7.67c0.38-10.63,0.59-21.26,1.04-31.88c0.37-8.61-0.2-17.49,1.75-25.76
			c3.07-13.03,7.9-25.64,11.99-38.43c1.41-4.41,3.83-8.76,4.05-13.23c0.79-16.27,0.8-32.58,1.2-48.87c0.22-9.13,0.54-18.26,1-27.38
			c0.42-8.31-1.77-10.75-10.23-10.75C295.8,381,244.81,381,193.82,381z M142.2,662c-34.32,0-68.63-0.01-102.95,0.01
			c-7.22,0-9.34,2.01-9.23,9.19c0.61,41.57,1.31,83.14,1.97,124.71c0.38,23.56,10.84,42.63,26.35,59.5
			c9.63,10.48,20.63,19.18,33.27,25.71c2.26,1.17,5.06,1.81,7.61,1.8c42.77-0.22,85.55-0.53,128.32-0.94
			c21.12-0.2,42.24-0.85,63.36-0.85c6.01,0,11.03-1.74,15.87-4.86c13.46-8.69,23.3-20.87,32.85-33.43
			c2.78-3.65,4.04-7.03,2.89-11.45c-10.64-41-18.34-82.59-24.64-124.45c-1.3-8.63-2.98-9.72-11.77-9.99
			c-9.45-0.29-18.85-0.9-27.82-4.61c-11.34-4.69-17.9-14.09-23.5-24.06c-2.88-5.13-6.33-6.36-11.63-6.34
			C209.5,662.07,175.85,662,142.2,662z M192,358c50.16,0,100.33,0.01,150.49-0.01c8.02,0,11.25-3.72,8.97-11.38
			c-4.51-15.15-8.73-30.46-14.52-45.13c-11.83-29.99-24.44-59.68-37.04-89.36c-13.79-32.48-24.04-65.8-25.99-101.31
			c-0.42-7.57-3.27-9.81-10.91-9.81c-46.33-0.01-92.66,0-139,0c-0.83,0-1.67,0-2.5,0.01c-4.01,0.06-6.71,1.8-7.42,5.93
			c-0.74,4.24-1.67,8.48-2.03,12.76c-1.86,22.08-7.62,43.21-16.18,63.52c-14.34,34-29.43,67.68-43.62,101.73
			c-8.44,20.24-16.56,40.68-19.61,62.68c-1.07,7.73,0.83,10.36,8.85,10.37C91.67,358.01,141.84,358,192,358z M328.71,609
			c0,0.36,0,0.72,0,1.08c-4.17,0-8.33-0.12-12.49,0.03c-4.3,0.16-8.63,0.36-12.88,0.95c-5.9,0.81-11.91,1.45-17.59,3.13
			c-10.29,3.04-13.18,8.86-11.38,19.37c0.74,4.35,0.88,9.03,0.15,13.36c-2.03,12.03,1.59,18.99,13.6,21.01
			c12.87,2.16,25.97,3.4,39.02,3.92c21.11,0.86,42.25,1.13,63.38,1.09c114.79-0.22,229.58-0.62,344.37-0.94c21-0.06,42,0.09,63-0.03
			c45.13-0.26,90.25-0.63,135.38-0.99c10.96-0.09,16.12-3.49,17.17-13.93c1.1-10.96,0.63-22.13,0.08-33.17
			c-0.33-6.63-3.8-11.8-11.18-12.68c-5.1-0.6-10.24-1.04-15.37-1.16c-19.29-0.44-38.59-0.99-57.88-1
			C686.94,608.97,507.83,609,328.71,609z M604.76,585c8,0,15.99,0.03,23.99-0.01c7.21-0.03,9.23-2.02,9.24-9.2
			c0.03-14.99-0.18-29.99,0.11-44.98c0.11-5.93,0.6-12.02,2.12-17.72c6.03-22.58,15.36-43.87,26.35-64.45
			c9-16.85,19.68-32.57,32.59-46.68c3.04-3.32,3.58-6.57,1.5-10.41c-2.21-4.09-4.47-8.15-6.59-12.28
			c-7.62-14.85-17.38-28.22-29.01-40.09c-10.16-10.37-22.01-18.66-35.5-24.25c-9.27-3.84-18.81-4.79-28.59-1.33
			c-21.24,7.53-38.12,21.21-50.87,39.13c-10.22,14.37-17.99,30.5-26.78,45.88c-3.9,6.83-3.41,13.2,1.1,19.94
			c13.86,20.73,26.19,42.36,34.82,65.85c4,10.89,8.77,21.86,10.37,33.2c2.2,15.54,1.75,31.45,2.37,47.2c0.16,3.99-0.04,8,0.04,11.99
			c0.12,5.93,2.28,8.11,8.25,8.17C588.43,585.06,596.6,585,604.76,585z M455.58,585c10.16,0,20.32,0,30.48,0
			c17.49,0,34.97-0.03,52.46,0.02c4.31,0.01,7.58-1.26,8.38-5.99c2.99-17.5,3.6-35.14-0.2-52.45
			c-10.09-45.99-29.04-87.26-66.77-117.52c-14.96-12-28.24-14.36-43.67-2.89c-10.93,8.13-20.73,18.14-29.66,28.5
			c-16.44,19.09-26.96,41.64-34.75,65.49c-4.4,13.47-7.97,27.13-8.05,41.39c-0.06,11.73-0.1,23.52,0.95,35.18
			c0.68,7.48,2.66,8.26,10.38,8.26C401.95,585,428.76,585,455.58,585z M753.47,585c26.98,0,53.97,0.01,80.95-0.01
			c6.98,0,9.24-1.82,10.41-8.71c2.26-13.31,2.94-26.72,1.04-40.11c-3.12-22.05-10.09-42.93-19.41-63.12
			c-7.84-16.99-17.56-32.73-30.13-46.55c-8.7-9.56-17.82-18.82-29.99-24.24c-8.85-3.95-17.93-5.11-26.37,0.04
			c-16.42,10.02-30.13,23.29-41.29,38.85c-12.26,17.09-21.02,36.13-28.09,55.91c-8.67,24.24-12.48,49.15-9.45,74.85
			c1.37,11.63,3.32,13.09,14.87,13.09C701.83,585,727.65,585,753.47,585z M192.97,77c33.98,0,67.95,0.01,101.93-0.01
			c6.96,0,9.05-2.05,9.09-8.84c0.05-9.49,0.06-18.99,0-28.48c-0.04-6.53-2.17-8.65-8.77-8.65c-67.79-0.02-135.57-0.02-203.36,0
			c-6.79,0-8.81,2.13-8.84,9.09C82.97,49.1,82.99,58.09,83,67.09C83.02,75.25,84.77,77,93.04,77C126.35,77.01,159.66,77,192.97,77z"
			/>
		<path class="st0" d="M146.77,506.8c1.39-4.57,2.61-12.53,6.12-19.31c9.2-17.79,19.53-34.99,29.16-52.56
			c4.92-8.99,15.49-9.67,21.96-0.82c11.42,15.62,20.05,32.83,28.07,50.35c2.34,5.12,3.98,10.56,6.08,15.8
			c3.47,8.66,1.87,17.03-1.38,25.26c-6.85,17.36-26.73,30.65-45.39,30.49c-9.24-0.08-17.16-3.82-24.17-9.37
			C155.42,537.3,147.42,525.68,146.77,506.8z M216.12,511.61c-0.19-1.3-0.04-3.97-1-6.16c-4.44-10.13-8.76-20.36-13.94-30.12
			c-5.6-10.55-12.22-6.57-16.32,0.53c-4.62,8.01-8.36,16.55-12.1,25.03c-3.8,8.62-3.92,17.15,2.79,24.64
			c6.43,7.19,19.16,9.1,28.47,4.91C211.76,526.95,216.05,521.43,216.12,511.61z"/>
		<path class="st0" d="M163,157.44c-2.55,23.63-5.95,47.11-16.18,68.87c-5.98,12.72-12.58,25.16-19.25,37.54
			c-2.34,4.34-6.71,6.48-11.75,6.07c-4.51-0.37-7.75-2.93-9.06-7.33c-0.49-1.63-0.55-3.65-0.05-5.25c1.02-3.32,2.44-6.53,3.87-9.7
			c6.44-14.21,14.12-27.99,19.09-42.69c4.86-14.36,6.96-29.65,10.33-44.52c0.81-3.56,2.07-7.02,2.7-10.6
			c1.14-6.49,6.02-7.13,10.9-6.68c6.96,0.64,9.3,3.34,9.39,9.8C163.02,154.45,163,155.95,163,157.44z"/>
		<path class="st0" d="M100.02,322c-6.9,0.01-11.61-4.34-11.75-10.83c-0.12-5.6,6.34-12.23,11.83-12.14
			c5.55,0.09,10.94,5.82,10.9,11.6C110.95,317.79,106.9,321.99,100.02,322z"/>
	</g>
</g>
</svg>
