<?xml version="1.0" encoding="utf-8"?>
<!-- Generator: Adobe Illustrator 23.0.1, SVG Export Plug-In . SVG Version: 6.00 Build 0)  -->
<svg version="1.1" id="Слой_1" xmlns="http://www.w3.org/2000/svg" xmlns:xlink="http://www.w3.org/1999/xlink" x="0px" y="0px"
	 viewBox="0 0 900 980" style="enable-background:new 0 0 900 980;" xml:space="preserve">
<style type="text/css">
	.st0{fill:#FFFFFF;}
</style>
<g>
	<g>
		<path class="st0" d="M407.28,163.34c5.83-8.08,10.98-15.41,16.35-22.58c5.92-7.9,3.4-14.52-6.19-15.91
			c-13.65-1.97-27.29-3.94-40.92-6.05c-1.26-0.2-2.87-1.08-3.49-2.14c-10.4-17.77-21.73-35.16-27.86-54.98
			c-3.06-9.89-5.64-20.41-5.7-30.66c-0.11-16.56,8.38-21.87,22.83-23.05c13.96-1.13,26.47,3.76,38.82,9.22
			c33.97,15.04,64.45,35.61,92.89,59.27c15.68,13.05,31.12,26.41,46.16,40.2c16.06,14.73,31.94,29.71,47.14,45.31
			c28.28,29.03,55.24,59.29,79.2,92.02c17.48,23.88,33.81,48.53,44.56,76.37c5.11,13.23,8.47,26.84,4.74,40.92
			c-1.14,4.32-4.19,8.88-7.71,11.63c-4.62,3.62-6.33,7.37-6.33,13.07c0.06,136.66,0.04,273.33-0.13,409.99
			c-0.03,20.32-0.89,40.64-1.29,60.97c-0.25,12.61-6.6,22.53-14.36,31.57c-15.82,18.43-36.47,29.95-58.18,40
			c-26.58,12.3-54.4,20.74-83.11,25.67c-23.06,3.96-46.43,6.35-69.74,8.5c-14.36,1.33-28.93,1.75-43.33,1.1
			c-21.24-0.97-42.51-2.55-63.6-5.18c-28.72-3.58-56.96-9.79-84.35-19.37c-22.99-8.04-44.99-18.05-64.54-32.86
			c-14.69-11.13-26.33-24.77-33.89-41.69c-0.58-1.29-0.56-2.92-0.56-4.39c-0.02-172.66-0.08-345.33,0.26-517.99
			c0.01-5.47,3.61-11.26,6.53-16.32c10.33-17.91,25.87-30.53,43.43-40.81c31.8-18.61,66.5-29.01,102.38-36.28
			c39.5-8,79.48-10.27,119.61-11.12c2.33-0.05,4.82,0.24,6.95-0.49c2.47-0.85,6.04-2.25,6.58-4.14c0.78-2.76,0.35-7.06-1.4-9.15
			c-9.08-10.8-18.88-20.99-28.19-31.61C429.6,189.59,418.6,176.54,407.28,163.34z M681.07,647.44c-0.07,0-0.14,0-0.21,0
			c0-28.16,0.09-56.32-0.03-84.48c-0.08-17.49-0.47-34.99-0.77-52.48c-0.13-7.48-5.04-10.77-12.02-8.01
			c-1.52,0.6-2.88,1.63-4.29,2.5c-6.08,3.73-12,7.77-18.26,11.17c-21.3,11.56-43.92,19.83-67.24,26.2
			c-23.43,6.4-47.06,12.22-71.36,13.81c-21.76,1.43-43.6,2.31-65.4,2.36c-21.3,0.04-42.73-0.07-63.88-2.27
			c-33.82-3.51-66.73-11.88-98.83-23.17c-21.74-7.64-42.2-17.8-61.03-31.25c-2.3-1.64-6.62-2.1-9.24-1.1
			c-1.99,0.76-3.89,4.71-3.89,7.24c-0.03,19.83,0.36,39.65,0.74,59.48c0.1,5.02,2.59,8.33,7.67,9.74
			c18.57,5.18,37,10.92,55.68,15.66c29.16,7.41,58.64,13.71,86.59,25.15c17.09,7,32.48,16.58,43.56,32
			c8.95,12.46,14.98,26.23,18.92,40.93c5.74,21.42,10.78,42.98,8.12,65.44c-2.36,19.95-11.82,35.28-29.76,45.02
			c-19.2,10.42-39.74,10.49-60.37,7.08c-35.87-5.92-69.7-18.3-102.25-34.3c-5.53-2.72-10.96-5.63-16.55-8.22
			c-6.91-3.2-12.19-0.19-12.48,7.35c-0.16,4.28,0.26,8.68,1.1,12.89c3.58,17.8,15.75,29.54,29.18,40.23
			c13.21,10.52,27.67,19.14,43.43,25.06c19.58,7.35,39.25,14.73,59.41,20.17c27.16,7.33,55.01,11.36,83.26,11.8
			c35.83,0.56,71.66,0.29,106.97-6.71c35.54-7.05,69.96-17.68,101.55-35.97c17.23-9.97,32.89-21.8,44-38.84
			c5.21-8,8.03-16.11,7.91-26.04C680.78,733.09,681.07,690.27,681.07,647.44z M439.53,453.5c33.97-0.15,65.93-0.93,97.51-6.58
			c26.21-4.69,52.1-10.73,76.99-20.42c18.39-7.16,35.45-16.6,50.34-29.72c5.06-4.46,4.44-11.22-1.6-14.41
			c-2.93-1.55-6.07-2.7-9.09-4.09c-20.9-9.6-40.57-21.36-58.92-35.15c-16.81-12.63-33.16-25.91-49.48-39.17
			c-11.45-9.3-22.62-18.97-33.73-28.67c-4.64-4.05-9.54-5.93-15.81-5.53c-7.63,0.48-15.32-0.08-22.98,0.06
			c-35.59,0.61-71.27-2.31-106.75,3.06c-31.61,4.79-62.9,10.81-92.88,22.28c-20.31,7.77-39.52,17.36-54.9,33.36
			c-15.91,16.55-18.14,41.61-4.96,58.85c9.67,12.65,22.12,21.94,36.05,29.3c30.67,16.19,63.95,24.11,97.72,30.27
			C378.25,452.63,409.84,453.89,439.53,453.5z M469.29,111.98c-1.86,2.5-3.15,4.2-4.4,5.93c-8.86,12.21-17.83,24.34-26.52,36.66
			c-4.42,6.26-3.97,11.43,0.75,16.76c7.93,8.96,15.49,18.28,23.9,26.76c20.73,20.91,41.4,41.92,62.96,61.96
			c18.09,16.81,37.11,32.66,56.25,48.29c24.46,19.98,50.15,38.32,78.97,51.62c7.43,3.43,15.63,5.81,23.73,7.04
			c12.31,1.86,18.5-5,14.13-16.55c-5.51-14.53-11.79-29.07-20-42.19c-13.08-20.89-27.1-41.36-42.45-60.63
			c-18.7-23.47-38.27-46.39-59.13-67.94c-23.23-23.99-48.06-46.47-72.75-69c-12.84-11.72-26.38-22.8-40.49-32.95
			c-17.75-12.77-36.08-24.8-54.78-36.13c-10.16-6.15-21.46-10.57-32.55-15c-5.67-2.27-12.33-3.39-17.36,1.75
			c-4.67,4.78-3.81,11.25-1.61,16.49c6.09,14.52,12.71,28.83,19.8,42.89c3.65,7.25,10.17,11.86,18.39,13.25
			c10.81,1.83,21.65,3.45,32.49,5.07C441.93,108.05,455.25,109.94,469.29,111.98z M445.62,539.98c45.57-0.25,92.51-4.7,138.43-17.15
			c29.08-7.88,56.97-18.59,79.52-39.44c5.81-5.37,11.95-12.29,13.85-19.57c3.49-13.35,4.14-27.48,5.56-41.33
			c0.45-4.43-3.02-7.03-7.01-6.71c-3.61,0.29-7.33,1.88-10.57,3.68c-7.25,4.03-14.06,8.84-21.34,12.79
			c-23.84,12.93-49.47,21.11-75.62,27.74c-39.54,10.03-79.68,14.72-120.54,14.41c-40.72-0.31-81.14-2.3-120.84-12.25
			c-38.04-9.53-75.26-20.87-107.79-43.97c-6.48-4.6-13.82-0.73-14.23,7.36c-0.45,8.79-0.39,17.64,0.04,26.44
			c0.38,7.78,3.19,14.98,7.87,21.22c11.27,15.02,26.42,25.48,43.27,32.69c17.34,7.42,35.27,13.95,53.52,18.65
			C353.61,535.84,398.51,539.78,445.62,539.98z M355.79,791.13c8.33-1.36,16.77-2.28,24.98-4.17c17.06-3.93,25.66-14.23,26.29-31.67
			c0.83-23-4.04-45.27-9.97-67.29c-3.24-12.02-8.8-22.84-17.67-31.87c-12.28-12.49-27.66-19.89-43.93-24.6
			c-38.46-11.14-77.24-21.18-115.91-31.58c-10.43-2.8-13.85-0.28-14.28,10.52c-0.35,8.82-0.38,17.65-0.36,26.48
			c0.07,30.65,0.26,61.3,0.33,91.95c0.01,6.12,1.6,10.59,7.92,13.41c22.32,9.94,44.16,20.96,66.66,30.46
			C303.97,782.96,329.14,789.73,355.79,791.13z M441.33,954.31c32.03-1.34,63.98-1.59,95.64-7.15
			c36.98-6.49,73.14-15.41,106.18-34.12c11.71-6.63,22.29-14.86,30.14-25.71c10.35-14.32,10.38-31.28,9.13-47.97
			c-0.57-7.62-7.32-9.98-14.1-5.56c-6.25,4.07-12.1,8.74-18.21,13.03c-22.66,15.9-47.86,26.65-73.91,35.37
			c-31.62,10.59-63.92,18.31-97.38,20.12c-33.14,1.79-66.32,2.72-99.2-2.67c-43.21-7.09-84.98-19.2-123.48-40.5
			c-12.83-7.1-24.55-16.3-36.41-25.04c-3.56-2.62-6.85-4.26-10.91-2.89c-4.25,1.44-4.47,5.49-4.45,9.18
			c0.06,8.49,0,17.01,0.64,25.47c0.67,8.93,3.48,17.25,9.63,24.1c12.67,14.08,28.02,24.14,45.33,31.79
			c35.03,15.47,71.88,23.86,109.62,28.12C393.36,952.57,417.41,952.92,441.33,954.31z"/>
		<path class="st0" d="M325.7,416.13c-3.78-5.8-7.08-10.88-10.61-16.3c47.77-31.78,94.96-63.18,142.61-94.88
			c3.3,5.69,6.35,10.96,9.72,16.77C420.19,353.18,373.18,384.5,325.7,416.13z"/>
		<path class="st0" d="M411.72,432.24c-4.06-4.87-7.54-9.06-11.82-14.2c42.06-31.93,83.68-63.52,125.5-95.27
			c3.72,4.79,7.24,9.33,11.29,14.54C496.08,370.38,453.76,400.98,411.72,432.24z"/>
		<path class="st0" d="M353.95,304.29c3.53,6.03,6.61,11.27,10.07,17.18c-36.03,20.36-71.51,40.41-107.46,60.73
			c-3.39-5.69-6.42-10.77-9.78-16.41C282.52,345.27,317.87,324.99,353.95,304.29z"/>
		<path class="st0" d="M514.99,431.91c-4.28-5.13-8.07-9.68-12.27-14.7c24.81-19.67,49.53-39.27,74.58-59.13
			c4.08,4.94,7.86,9.51,12.19,14.76C564.66,392.53,539.98,412.1,514.99,431.91z"/>
	</g>
</g>
</svg>
