<?xml version="1.0" encoding="utf-8"?>
<!-- Generator: Adobe Illustrator 23.0.1, SVG Export Plug-In . SVG Version: 6.00 Build 0)  -->
<svg version="1.1" id="Слой_1" xmlns="http://www.w3.org/2000/svg" xmlns:xlink="http://www.w3.org/1999/xlink" x="0px" y="0px"
	 viewBox="0 0 529.08 508.99" style="enable-background:new 0 0 529.08 508.99;" xml:space="preserve">
<style type="text/css">
	.st0{fill:#FFFFFF;}
	.st1{fill:#3899DA;}
</style>
<g>
	<g>
		<path class="st0" d="M470.31,429.29c13.17,0,26.33-0.01,39.5,0c1.33,0,2.91-0.37,3.94,0.21c1.72,0.98,3.09,2.59,4.61,3.93
			c-1.62,1.43-3.09,3.12-4.92,4.19c-1,0.59-2.61,0.15-3.94,0.15c-19.5,0-39,0.06-58.5-0.08c-4.01-0.03-6.67,1.1-9.11,4.58
			c-5.21,7.44-10.68,14.78-16.76,21.51c-6.22,6.88-14.72,9.24-23.89,9.24c-33.17,0-66.33,0.01-99.5,0.01
			c-54.66,0-109.33-0.35-163.99,0.21c-16.48,0.17-28.99-4.95-37.83-18.96c-2.73-4.32-6.4-8.06-9.1-12.4
			c-2.07-3.34-4.7-4.21-8.31-4.19c-19.66,0.09-39.33,0.05-58.99,0.06c-0.67,0-1.33-0.02-2,0.01c-3.3,0.14-6.72-0.89-6.45-4.34
			c0.12-1.55,4.22-3.66,6.7-3.97c4.92-0.62,9.98-0.16,14.98-0.17c21.5-0.01,43,0.05,64.5-0.14c2.37-0.02,5.76-0.76,6.87-2.39
			c1.87-2.75-0.3-5.37-2.53-7.75c-17.37-18.54-28.4-39.98-28.89-65.87c-0.35-18.37,4.13-35.35,17.48-48.71
			c13.57-13.58,30.33-18.4,49.28-16.05c5.28,0.65,10.59,1.1,15.88,1.68c3.7,0.41,6.13-0.62,6.57-4.81c0.3-2.79,1.29-5.5,1.62-8.28
			c0.56-4.77-1.11-6.46-5.83-6.29c-18.93,0.69-34.82-10.58-39.35-29.03c-1.41-5.73-0.61-12.14,0.05-18.14c0.21-1.91,2.95-4.56,5-5.1
			c17.79-4.74,35.86,4.78,43.89,21.73c0.71,1.49,0.91,3.27,1.8,4.61c1.1,1.65,2.6,4.06,4.07,4.18c1.77,0.14,3.96-1.51,5.51-2.9
			c3.34-2.99,6.16-6.61,9.67-9.35c1.32-1.03,3.98-0.36,6.03-0.47c-0.17,2.07,0.41,4.75-0.66,6.11c-3.27,4.12-7.58,7.43-10.77,11.6
			c-6.58,8.57-9.88,18.69-12.18,29.11c-1.02,4.63,1.05,7.17,5.81,6.89c7.3-0.44,14.6-2.04,21.84-1.72
			c7.51,0.33,15.04,1.94,22.37,3.77c5.95,1.49,7.73,1.06,9.77-5.42c6.8-21.54,17.52-40.91,33.67-56.69
			c7.5-7.33,16.54-13.19,25.37-18.97c4.17-2.73,4.82-5.44,3.29-9.47c-6.96-18.31-19.69-31.57-36.46-41.16
			c-3.85-2.2-8.17-3.57-12.06-5.73c-1.53-0.85-3.45-2.84-3.39-4.22c0.07-1.43,2.1-3.47,3.69-4c13.57-4.53,27.39-6.61,41.72-4.01
			c2.28,0.41,5.64-0.06,7.06-1.53c1.12-1.15,0.68-4.75-0.2-6.76c-5.37-12.29-12.92-23.11-22.86-32.21
			c-4.56-4.17-3.84-7.04,2.13-9.08c10.88-3.73,21.49-3.4,31.88,1.89c6.56,3.34,8.45,2.08,10.28-5.2
			c3.24-12.88,6.94-25.64,14.29-36.94c3.07-4.72,5.53-4.76,8.52-0.15c6.95,10.71,10.63,22.76,13.93,34.94
			c0.3,1.12,0.61,2.24,0.9,3.37c1.67,6.48,3.41,7.43,9.42,4.35c10.69-5.46,21.64-5.67,32.77-1.91c1.81,0.61,3.95,2.17,4.54,3.8
			c0.38,1.04-1.57,3.24-2.86,4.54c-9.72,9.87-18.09,20.72-23.57,33.5c-2.57,6,0.23,8.97,6.71,7.63c14.25-2.95,28.13-1.21,41.69,3.49
			c1.85,0.64,3.94,2.74,4.36,4.52c0.25,1.07-2.25,3.53-3.97,4.21c-9.7,3.8-18.33,9.23-26.09,16.1
			c-9.86,8.72-17.26,19.11-21.91,31.49c-1.59,4.24,0.11,6.7,3.57,8.54c22.06,11.66,37.58,29.68,48.86,51.44
			c14.52,28,19.8,57.84,16.9,89.28c-1.94,20.96-7.64,40.68-17.35,59.29c-1.76,3.37-3.72,6.64-5.68,9.9
			c-3.02,5.03-1.31,8.42,4.59,8.46C442.32,429.37,456.32,429.3,470.31,429.29z M169.14,429.04c11.67,0,23.33,0.07,35-0.07
			c2.06-0.02,4.54-0.34,6.09-1.5c29.45-21.95,46.42-50.04,41.99-88.07c-3.09-26.58-25-45.02-51.75-42.45
			c-21.51,2.07-42.78,1.87-64.25-0.15c-16.32-1.54-29.98,5.18-40.04,18.21c-11.04,14.3-12.5,31.06-9.97,48.03
			c3.57,23.9,16.35,42.88,34.16,58.75c5.81,5.18,12.03,8.1,20.28,7.42C150.09,428.42,159.64,429.03,169.14,429.04z M266.53,437.98
			c-49.33,0-98.66,0-147.99,0c-3.67,0-7.34-0.15-11,0.05c-3.54,0.2-5.29,3.13-4.03,6.3c4.9,12.21,16.32,20.01,29.53,20.02
			c36,0.03,71.99,0.01,107.99,0.01c53.16,0,106.32-0.07,159.48,0.06c9.6,0.02,17.15-3.27,22.66-11.17c1.33-1.91,3.04-3.62,4.05-5.68
			c1.08-2.2,2.71-5.26,1.93-6.91c-0.75-1.58-4.3-2.56-6.62-2.56C370.52,437.96,318.52,437.99,266.53,437.98z M394.87,149.83
			c-0.14-0.43-0.27-0.86-0.41-1.28c-8.5,2.63-17.42,4.37-25.42,8.09c-15.51,7.2-26.36,19.41-33.03,35.18
			c-1.76,4.17-0.32,6.66,3.63,7.27c7.7,1.18,15.41,2.36,23.07,3.78c3.39,0.63,5.55-0.43,6.72-3.52
			c6.35-16.83,16.81-30.43,31.49-40.89c1.49-1.06,2.79-4.15,2.3-5.71c-0.44-1.39-3.42-2.09-5.38-2.85
			C396.98,149.55,395.87,149.83,394.87,149.83z M400.26,300.5c-1.16-1.59-2.03-3.17-3.25-4.4c-6.55-6.62-13.29-13.06-19.74-19.78
			c-3.35-3.48-6.16-3.09-9.29,0.08c-6.66,6.75-13.3,13.52-20.13,20.1c-3.14,3.03-2.81,5.8-0.07,8.57
			c6.89,6.99,13.81,13.95,20.84,20.8c2.58,2.51,5.31,2.95,8.21-0.03c6.84-7.04,13.88-13.88,20.75-20.89
			C398.66,303.84,399.24,302.22,400.26,300.5z M435.5,336.34c-0.88-1.54-1.37-3.04-2.36-4.05c-6.99-7.12-14.09-14.14-21.15-21.2
			c-2.56-2.56-5.06-2.78-7.74-0.07c-7.02,7.09-14.13,14.1-21.17,21.18c-2.65,2.66-2.91,5.34-0.05,8.17
			c6.87,6.78,13.68,13.61,20.45,20.49c3.04,3.09,5.95,3.17,9.01,0.1c6.93-6.96,13.9-13.86,20.78-20.86
			C434.25,339.09,434.75,337.63,435.5,336.34z M329.48,371.58c-0.89-1.44-1.46-2.87-2.46-3.89c-6.99-7.12-14.07-14.14-21.09-21.22
			c-2.83-2.86-5.47-2.48-8.14,0.21c-6.92,6.96-13.83,13.91-20.81,20.81c-2.83,2.79-2.74,5.37,0.03,8.12
			c6.96,6.91,13.89,13.85,20.79,20.82c2.7,2.73,5.31,3.03,8.13,0.18c6.9-6.97,13.89-13.86,20.76-20.86
			C327.81,374.62,328.51,373.07,329.48,371.58z M364.74,336.41c-0.98-1.64-1.65-3.4-2.85-4.64c-6.62-6.8-13.39-13.46-20.07-20.2
			c-3.23-3.26-6.06-3.15-9.3,0.25c-6.43,6.75-13.12,13.26-19.74,19.83c-2.99,2.97-3.46,5.75-0.18,8.95
			c6.8,6.62,13.5,13.35,20.12,20.15c3.06,3.14,5.85,3.26,8.95,0.12c6.79-6.87,13.68-13.64,20.46-20.52
			C363.14,339.32,363.76,337.92,364.74,336.41z M372.8,399.12c1.47-0.89,2.91-1.44,3.92-2.42c7-6.88,13.91-13.84,20.85-20.79
			c3.11-3.12,2.71-6.01-0.35-9.01c-6.77-6.64-13.48-13.33-20.11-20.11c-3.19-3.27-5.95-2.72-8.9,0.28
			c-6.65,6.76-13.28,13.54-20.12,20.11c-3.27,3.14-3.17,5.83-0.09,8.87c6.74,6.67,13.39,13.43,20.17,20.05
			C369.42,397.3,371.13,398.05,372.8,399.12z M337.25,292.98c1.54-1.01,3.07-1.71,4.2-2.82c6.99-6.87,13.84-13.9,20.86-20.75
			c2.93-2.86,2.68-5.36-0.06-8.08c-6.84-6.79-13.67-13.6-20.45-20.45c-3.23-3.27-6.15-3.14-9.34,0.15
			c-6.37,6.56-12.91,12.95-19.33,19.46c-3.85,3.9-3.94,5.77-0.18,9.63c6.73,6.9,13.58,13.69,20.45,20.44
			C334.4,291.54,335.82,292.1,337.25,292.98z M329.34,300.58c-0.95-1.44-1.65-2.95-2.74-4.07c-6.65-6.78-13.45-13.41-20.06-20.22
			c-3.06-3.16-5.9-3.31-8.97-0.23c-6.83,6.83-13.62,13.7-20.52,20.48c-2.84,2.79-2.77,5.58-0.17,8.24c7,7.14,14.11,14.16,21.2,21.2
			c2.57,2.54,5.01,2.66,7.72-0.12c6.97-7.16,14.14-14.13,21.15-21.25C327.94,303.6,328.44,302.13,329.34,300.58z M337.27,429.95
			c3.16-1.09,6.98-1.4,9.36-3.41c5.57-4.7,10.48-10.18,15.6-15.4c2.65-2.7,2.76-5.55,0.04-8.29c-6.91-6.96-13.82-13.92-20.8-20.8
			c-2.85-2.81-5.54-2.83-8.53,0.28c-6.67,6.96-13.55,13.72-20.43,20.47c-3.05,2.99-2.81,5.64,0.14,8.49
			c4.53,4.4,9.15,8.73,13.38,13.41C329.08,428.06,332.36,429.97,337.27,429.95z M279.6,149.88c-1.16,0-2.41-0.27-3.47,0.06
			c-1.88,0.59-5.11,1.47-5.16,2.38c-0.11,1.93,0.9,4.71,2.42,5.83c14.61,10.7,25.38,24.22,32.01,41.13c0.65,1.65,3.43,3.52,5.2,3.5
			c9.62-0.11,12.9-2.83,16-11.85c0.91-2.65,2.62-5.08,3.22-7.78c0.48-2.18,0.75-5.32-0.43-6.82
			C316.75,160.2,300.28,151.02,279.6,149.88z M311.75,212.54c-1.11,0.25-1.77,0.33-2.39,0.56c-10.75,3.91-20.38,9.73-29.08,17.11
			c-2.88,2.44-1.99,5.19,0.13,7.41c5.77,6.01,11.68,11.87,17.65,17.68c2.53,2.47,5.18,2.52,7.84-0.18
			c7.02-7.11,14.15-14.11,21.21-21.18c2.4-2.4,2.48-5.06,0.18-7.49c-3.9-4.1-7.91-8.1-12.01-12.01
			C314.27,213.48,312.75,213.06,311.75,212.54z M294.1,265.68c-0.77-1.43-1.16-2.8-2.03-3.7c-5.92-6.09-11.82-12.21-17.99-18.05
			c-2.73-2.59-5.91-2.3-8.05,1.05c-5.43,8.53-10.69,17.17-16.04,25.75c-2.14,3.43-1.27,6.2,1.52,8.83
			c3.63,3.43,7.16,6.98,10.64,10.55c2.88,2.96,5.65,3.06,8.58,0.11c6.82-6.85,13.7-13.63,20.48-20.51
			C292.34,268.59,293.1,267.1,294.1,265.68z M426.07,274.93c-0.25-0.96-0.27-1.51-0.52-1.92c-5.96-9.73-11.82-19.53-18.01-29.12
			c-1.47-2.27-4.14-2.75-6.46-0.44c-6.13,6.1-12.3,12.17-18.37,18.33c-2.35,2.39-2.41,4.92,0.08,7.4
			c7.07,7.05,14.13,14.1,21.15,21.2c2.76,2.79,5.4,2.83,8.15,0.07c3.87-3.89,7.83-7.7,11.61-11.68
			C424.79,277.62,425.41,276.02,426.07,274.93z M396.57,233.44c-1.02-1.39-1.7-2.76-2.76-3.68c-8.28-7.1-17.44-12.84-27.81-16.25
			c-2.02-0.66-5.3,0.06-7,1.41c-4.02,3.19-7.44,7.13-11.08,10.79c-2.88,2.89-2.83,5.81,0.05,8.69c6.95,6.94,13.89,13.9,20.87,20.82
			c2.6,2.58,5.12,2.53,7.76-0.16c5.7-5.83,11.56-11.52,17.26-17.36C394.95,236.56,395.59,234.99,396.57,233.44z M270.39,429.77
			c2.13-1.22,4.22-1.95,5.68-3.34c5.29-5.05,10.34-10.34,15.52-15.5c2.6-2.58,2.79-5.11,0.15-7.76
			c-7.16-7.18-14.29-14.38-21.47-21.54c-2.43-2.43-5.04-2.35-7.46,0c-3.34,3.24-6.93,6.31-9.75,9.96
			c-2.34,3.02-5.23,6.55-2.67,10.84c4.83,8.1,9.79,16.14,14.95,24.04C266.28,427.92,268.46,428.56,270.39,429.77z M404.19,429.8
			c1.92-1.21,4.11-1.86,5.04-3.31c5.45-8.52,10.82-17.11,15.65-25.98c0.9-1.64-0.06-5.26-1.41-6.97c-3.18-4.02-7.17-7.4-10.75-11.11
			c-3.2-3.31-6.17-3.2-9.37,0.07c-6.64,6.78-13.37,13.46-20.1,20.15c-2.94,2.92-2.88,5.72,0.02,8.6c5.2,5.15,10.31,10.4,15.62,15.45
			C400.23,427.97,402.16,428.64,404.19,429.8z M292.68,99.05c-0.5,0.35-2.45,1.03-2.6,1.98c-0.3,1.91-0.32,4.52,0.75,5.9
			c9.2,11.8,15.73,24.96,20.68,39c0.59,1.68,1.35,3.6,2.63,4.69c5.06,4.28,10.28,8.4,15.66,12.27c1.24,0.89,3.81,1.22,4.98,0.51
			c1.12-0.68,1.96-3.21,1.64-4.65c-3.7-16.82-8.82-33.11-20-46.7C310.56,104.9,303.15,100.05,292.68,99.05z M263.29,352.34
			c-0.45,0.09-0.9,0.17-1.36,0.26c0,0.83-0.21,1.73,0.04,2.48c0.88,2.63,1.92,5.21,2.91,7.8c2.38-1.1,5.23-1.69,7.05-3.38
			c6.45-6,12.57-12.37,18.79-18.63c3.89-3.91,3.93-5.54,0.03-9.51c-5.83-5.93-11.75-11.78-17.62-17.68
			c-2.7-2.71-5.21-6.15-9.69-3.41c-6.19,3.78-7.52,8.05-6.04,13.98C259.71,333.53,261.36,342.97,263.29,352.34z M342.14,144.05
			c1.15,4.01,1.91,7.8,3.41,11.28c0.49,1.14,3.49,2.48,4.31,1.99c4.98-2.97,10.98-4.83,13.15-11.26
			c4.78-14.13,11.66-27.15,20.63-39.1c1.04-1.39,1.61-4.4,0.81-5.55c-0.92-1.32-4.01-2.39-5.47-1.82
			c-5.33,2.08-10.97,4.14-15.41,7.59c-8.32,6.47-13.2,15.7-17.07,25.39C344.96,136.42,343.55,140.32,342.14,144.05z M350.91,104.64
			c-3.09-10.86-6.26-22.38-9.78-33.8c-0.4-1.3-2.79-2.78-4.21-2.73c-1.27,0.04-3.21,1.86-3.6,3.25
			c-3.09,10.86-5.97,21.78-8.66,32.75c-0.38,1.55,0.28,3.65,1.1,5.14c2.34,4.21,4.98,8.25,7.57,12.31c2.34,3.66,5.97,3.66,8.27,0.01
			c2.57-4.08,5.1-8.18,7.54-12.33C349.8,108.11,350.1,106.79,350.91,104.64z M137.11,225.8c-5.77-0.22-7.63,1.53-7.62,7.15
			c0.03,15.82,13.65,29.28,29.49,29.14c5.2-0.05,6.94-1.8,6.87-6.94C165.66,239.15,153.2,226.42,137.11,225.8z M437.35,313.7
			c-0.74-4.26-1.18-7.54-1.89-10.77c-0.82-3.71-1.72-7.42-2.88-11.03c-1.11-3.47-4.52-4.23-7.42-1.66
			c-2.48,2.19-4.69,4.68-7.07,6.98c-2.37,2.29-2.3,4.81-0.23,7.02c3.97,4.22,8.07,8.33,12.38,12.2c0.96,0.86,3.3,1.14,4.46,0.57
			C436.04,316.35,436.78,314.47,437.35,313.7z M437.56,359.43c-0.92-1.34-1.67-3.52-3.12-4.18c-1.19-0.55-3.5,0.29-4.78,1.24
			c-2.24,1.66-4.07,3.89-6.09,5.87c-9.61,9.43-9.61,9.45,0.28,18.81c0.6,0.57,1.13,1.33,1.85,1.64c2.99,1.28,5.86,0.98,6.82-2.46
			C434.4,373.67,435.81,366.84,437.56,359.43z M241.14,429.03c0,0.06,0.01,0.13,0.01,0.19c2.79-0.2,5.69-0.03,8.33-0.77
			c1.04-0.29,2.5-3.12,2.09-3.91c-2.25-4.29-4.87-8.42-7.8-12.27c-0.45-0.6-3.64-0.03-4.73,0.94c-2.84,2.51-5.4,5.39-7.73,8.39
			c-2.61,3.38-0.86,7.06,3.36,7.39C236.82,429.17,238.99,429.03,241.14,429.03z M240.52,296.99c-0.06,3.78,7.13,11.74,10.1,11.04
			c2.44-0.57,4.89-2.6,6.5-4.63c0.91-1.15,0.88-4.21-0.04-5.39c-2.42-3.12-5.31-6.05-8.54-8.27c-1.22-0.84-4.72-0.23-5.76,0.96
			C241.29,292.41,241.08,295.26,240.52,296.99z M301.8,430.15c3.4-1.25,7.85-1.5,9.2-3.68c2.49-4.03-2.45-6.12-4.67-8.76
			c-2.89-3.44-5.98-3.25-8.8,0.09c-2.22,2.62-7.09,4.67-4.48,8.79C294.37,428.68,298.57,428.94,301.8,430.15z M372.2,429.04
			c7.79,0.01,11.28-1.75,9.75-4.58c-1.94-3.6-5.48-6.76-9.05-8.9c-2.26-1.35-10.01,6.22-9.66,9.11
			C363.99,430.88,368.98,428.56,372.2,429.04z M337.42,207.86c-3.51,0.86-9.72-1.14-9.06,4.62c0.39,3.38,5.17,6.86,8.73,9.05
			c2.25,1.38,10.19-6.41,9.66-9.22C345.73,206.81,341,208.52,337.42,207.86z"/>
		<path class="st1" d="M100.79,80.78c-5.09-4.39-9.3-7.61-12.98-11.36c-2.51-2.56-4.68-5.67-6.19-8.91
			c-0.79-1.71-0.63-5.31,0.5-6.13c1.81-1.3,5.49-2.15,7.12-1.15c4.01,2.47,7.37,6.02,10.85,9.29c2.71,2.54,5.2,5.32,8.47,8.68
			c0.9-2.37,1.18-3.62,1.82-4.64c0.77-1.22,1.84-2.24,2.79-3.35c1.06,1.11,2.81,2.09,3.07,3.36c0.74,3.74,0.81,7.6,1.28,11.4
			c0.78,6.27,4.72,10.04,11.96,11.11c0-5.99,0.4-11.95-0.2-17.8c-0.23-2.33-2.37-4.7-4.14-6.59c-3.86-4.13-8.07-7.94-12.08-11.93
			c-1.46-1.45-4.06-3.24-1.36-5.15c1.76-1.25,5.14-1.94,6.9-1.07c3.03,1.49,5.34,4.41,8,6.68c0.58,0.49,1.34,0.77,3.25,1.83
			c-0.53-3.53-0.66-6.07-1.31-8.47c-1.33-4.89,0.35-8.81,3.47-12.37c2.53-2.88,5.23-2.67,7.71-0.03c3.41,3.63,4.77,7.88,3.5,12.88
			c-0.55,2.16-0.67,4.42-0.99,6.64c0.38,0.23,0.76,0.46,1.14,0.69c2.79-2.41,5.48-4.96,8.41-7.19c4.6-3.51,6.81-2.87,9.82,2.87
			c-4.63,4.54-9.22,9.36-14.15,13.8c-4,3.61-6.14,7.47-5.27,13.12c0.62,4.04,0.12,8.25,0.12,12.49c7.65-1.54,11.41-5.53,12.21-12.66
			c0.33-2.98,0.12-6.07,0.86-8.92c0.45-1.73,2.27-3.1,3.47-4.63c0.96,1.46,1.96,2.9,2.88,4.39c0.42,0.68,0.67,1.46,1.41,3.1
			c2.15-1.84,4.07-3.25,5.72-4.92c3.15-3.21,5.99-6.72,9.26-9.8c1.49-1.4,3.64-2.75,5.56-2.86c2.27-0.12,5.54,0.45,6.67,1.98
			c1.02,1.38,0.58,5.11-0.65,6.67c-3.87,4.91-8.37,9.33-12.72,13.85c-1.54,1.6-3.34,2.94-5.58,4.88c3.82,1.23,6.69,2.15,11.15,3.58
			c-2.73,1.97-4.08,3.3-5.7,3.99c-1.47,0.62-3.29,0.87-4.89,0.71c-9.33-0.98-15.24,3.58-19.19,11.5
			c15.44,4.11,25.65,0.31,33.85-12.39c1.01-1.57,2.79-3.55,4.33-3.66c2.35-0.16,4.81,1.15,7.22,1.84c-0.79,2.3-1.07,5-2.5,6.8
			c-1.72,2.16-4.42,3.55-6.69,5.28c0.15,0.64,0.3,1.28,0.44,1.92c3.31,0.35,6.61,0.74,9.92,1.05c2.79,0.26,5.74-0.05,8.36,0.75
			c4.66,1.43,5.47,5.9,1.91,9.31c-3.63,3.48-7.96,4.6-12.91,3.52c-2.23-0.49-4.52-0.69-7.5-0.01c1.25,1.54,2.52,3.07,3.75,4.63
			c1.64,2.08,3.77,3.99,4.67,6.36c0.56,1.49-0.25,4.13-1.4,5.38c-0.64,0.7-3.74,0.19-4.85-0.78c-4.26-3.71-8.27-7.74-12.19-11.82
			c-3.46-3.61-7.32-5.34-12.48-4.75c-4.19,0.48-8.47,0.1-13,0.1c3.05,8.78,8.46,12.78,17.05,12.35c2.13-0.11,4.41,0.06,6.41,0.72
			c1.28,0.42,2.18,1.97,3.25,3.01c-1.11,0.98-2.13,2.12-3.38,2.88c-0.91,0.55-2.13,0.6-4.12,1.1c1.44,2,2.32,3.69,3.62,4.95
			c2.87,2.78,6.02,5.26,8.91,8.03c1.79,1.71,4.19,3.51,4.71,5.65c0.62,2.57,0.21,5.96-1.11,8.18c-0.66,1.11-5.1,1.43-6.54,0.36
			c-5.29-3.9-10.09-8.47-14.98-12.9c-1.52-1.38-2.71-3.11-4.83-5.59c-0.63,3.13-0.65,5.18-1.48,6.83c-0.7,1.38-2.33,2.3-3.55,3.42
			c-0.66-1.31-1.82-2.59-1.89-3.94c-0.5-9.15-2.77-17.44-10.34-23.42c-0.72-0.57-1.6-0.94-3.03-1.77c0,7.12-0.32,13.58,0.18,19.97
			c0.17,2.15,2.12,4.45,3.81,6.12c3.29,3.27,6.96,6.16,10.5,9.17c2.75,2.33,4.1,5.23,1.73,8.26c-2.68,3.44-5.66,1.64-8.14-0.67
			c-2.13-1.99-4.05-4.2-6.07-6.31c-0.44,0.12-0.89,0.25-1.33,0.37c-0.19,2.14-0.42,4.29-0.58,6.43c-0.29,3.96,0,8.09-1.04,11.84
			c-0.56,2.01-3.39,4.64-5.24,4.67c-1.93,0.03-4.95-2.36-5.63-4.33c-1.16-3.32-0.88-7.16-1.15-10.78c-0.19-2.55-0.3-5.1-0.44-7.65
			c-0.48-0.18-0.95-0.37-1.43-0.55c-1.97,2.11-3.91,4.26-5.94,6.32c-2.44,2.48-5.3,4.11-8.2,1.07c-2.84-2.96-1.34-5.83,1.27-8.2
			c1.35-1.22,2.73-2.47,4.26-3.42c12.64-7.86,11.12-20.19,10.18-32.75c-8.72,5.33-11.85,13.44-12.94,22.86
			c-0.26,2.26-1.53,4.41-2.34,6.6c-1.35-2.23-2.77-4.42-4.01-6.71c-0.43-0.79-0.43-1.81-0.86-3.79c-2.17,2.77-3.52,5.05-5.38,6.77
			c-4.48,4.15-8.97,8.38-13.96,11.85c-1.63,1.13-6.47,0.8-6.97-0.24c-1.18-2.46-1.85-6.55-0.54-8.54c2.69-4.07,6.7-7.31,10.38-10.66
			c2.19-2,4.77-3.56,7.18-5.32c-0.38-0.68-0.76-1.36-1.15-2.03c-1.28-0.4-2.66-0.64-3.82-1.26c-1.16-0.62-3.08-1.84-2.95-2.43
			c0.29-1.33,1.43-3.16,2.59-3.48c2.68-0.74,5.58-0.97,8.39-0.94c7.88,0.08,12.51-4,15.09-11.06c-8.74-3.68-21.12-1.17-26.95,5.37
			c-3.99,4.47-7.99,8.92-11.65,12.99c-6.48-3.23-7.17-5.2-4.06-9.48c2.29-3.14,4.97-6,6.96-10.06c-2.19,0.3-4.42,0.43-6.55,0.95
			c-4.71,1.15-9.1,0.47-12.55-2.85c-1.61-1.54-3.59-4.89-2.94-6.09c1.13-2.09,3.99-3.89,6.45-4.48c3.15-0.76,6.63-0.07,9.95-0.25
			c1.87-0.11,3.71-0.72,5.56-1.11c0.17-0.47,0.34-0.93,0.5-1.4c-1.91-1.6-4.03-3.02-5.67-4.86c-1.57-1.76-3.2-3.84-3.68-6.03
			c-0.2-0.9,2.6-3.52,3.95-3.46c2.53,0.11,5.38,1.11,7.39,2.66c2,1.54,2.9,4.41,4.67,6.35c5.03,5.51,10.82,9.21,18.89,7.97
			c3.55-0.54,7.25-0.09,11.01-0.09c-3.29-8.73-7.96-12.07-16.62-12.21c-4.42-0.07-9.16,0.64-12.11-4.86
			c1.58-0.7,2.96-1.46,4.44-1.93C96.33,81.57,97.95,81.37,100.79,80.78z"/>
		<path class="st0" d="M226.66,362.31c-1.61,4.32-2.69,7.99-4.3,11.4c-4.78,10.16-11.38,19.01-19.74,26.57
			c-2.42,2.19-4.76,3.36-7.27,0.63c-2.31-2.52-1.12-4.9,1.06-6.9c9.62-8.79,16.48-19.33,20.83-31.64c0.6-1.71,3.41-3.2,5.44-3.62
			C223.69,358.54,225.25,360.97,226.66,362.31z"/>
		<path class="st0" d="M215.88,324.97c2.64,3.06,5.53,5.77,7.53,9.02c0.77,1.26,0.14,4.87-0.89,5.4c-1.54,0.79-4.59,0.54-5.95-0.56
			C212.11,335.22,211.06,330.66,215.88,324.97z"/>
	</g>
</g>
</svg>
