<?xml version="1.0" encoding="utf-8"?>
<!-- Generator: Adobe Illustrator 23.0.1, SVG Export Plug-In . SVG Version: 6.00 Build 0)  -->
<svg version="1.1" id="Слой_1" xmlns="http://www.w3.org/2000/svg" xmlns:xlink="http://www.w3.org/1999/xlink" x="0px" y="0px"
	 viewBox="0 0 257.1 231.06" style="enable-background:new 0 0 257.1 231.06;" xml:space="preserve">
<style type="text/css">
	.st0{fill:#FFFFFF;}
</style>
<g>
	<g>
		<path class="st0" d="M152.92,14.65c6.64,3.98,9.71,9.31,13.32,14.12c1.7,2.26,3.53,4.43,5.3,6.64c1.42-2.53,3.4-4.9,4.14-7.61
			c2.19-8,3.82-16.15,5.86-24.19c0.34-1.33,1.63-2.42,2.49-3.62c0.93,1,2.43,1.87,2.7,3.02c1.97,8.7,3.66,17.47,5.52,26.2
			c0.39,1.82,1.09,3.57,1.65,5.35c1.34-1.06,3.05-1.88,3.97-3.23c6.16-9.07,12.1-18.29,18.25-27.37c0.89-1.32,2.52-2.14,3.81-3.19
			c0.46,1.51,1.5,3.11,1.3,4.52c-1.52,10.49-3.27,20.95-5,31.41c-0.29,1.74-0.84,3.43-1.49,6.01c14.62-1.87,28.47-2.33,41.96,1.66
			c0.14,0.62,0.28,1.25,0.42,1.87c-1.73,0.92-3.39,2-5.2,2.74c-9.66,3.99-19.38,7.86-29.02,11.89c-1.73,0.72-3.21,2.06-5.89,3.82
			c2.55,0.99,3.95,1.52,5.34,2.07c7.85,3.11,15.76,6.07,23.48,9.46c1.84,0.81,3.03,3.09,4.52,4.7c-2.06,0.52-4.1,1.32-6.19,1.5
			c-9.25,0.76-18.51,1.29-27.75,2.05c-1.16,0.1-2.25,1.1-3.37,1.69c0.7,1.18,1.23,2.51,2.13,3.51c4.13,4.55,8.44,8.93,12.48,13.54
			c0.83,0.95,0.8,2.64,1.17,3.99c-1.51,0.13-3.15,0.72-4.51,0.33c-10.32-2.98-20.59-6.16-30.88-9.27c-0.39,0.41-0.78,0.83-1.18,1.24
			c0.38,1.55,0.73,3.1,1.16,4.64c1.38,4.93,2.96,9.81,4.1,14.79c0.34,1.47-0.51,3.22-1.02,5.88c-8.34-6.94-15.08-14.17-24.92-17.4
			c-0.54,7.51-1.05,14.57-1.56,21.64c-0.6,0.12-1.21,0.25-1.81,0.37c-1.06-0.88-2.32-1.6-3.16-2.65
			c-6.88-8.64-14.1-16.79-24.99-20.62c-1.02-0.36-1.9-2.23-2.15-3.53c-2.06-10.7-8.12-19.11-15.09-27.06
			c-0.92-1.04-1.45-2.42-2.16-3.64c1.37-0.71,2.79-2.11,4.1-2.01c4.44,0.34,8.86,1.06,13.23,1.94c4.07,0.82,5.35-0.07,3.79-3.8
			c-2.6-6.24-5.82-12.21-8.67-18.35c-0.72-1.54-1.01-3.28-1.5-4.93c1.69-0.16,3.61-0.91,5.01-0.35c3.98,1.6,7.73,3.76,11.59,5.65
			c1.86,0.91,3.76,1.73,5.65,2.6c0.38-2.18,1.19-4.38,1.06-6.53c-0.5-7.96-1.34-15.9-1.97-23.85
			C152.78,20.24,152.92,18.15,152.92,14.65z M239.51,48.3c0.1-0.44,0.2-0.87,0.3-1.31c-1.24-0.44-2.47-1.24-3.72-1.27
			c-9.86-0.22-19.65,0.01-28.54,5.27c-0.98,0.58-2.55,0.18-3.85,0.23c0.36-1.18,0.36-2.72,1.13-3.49
			c7.42-7.42,9.04-17.15,10.87-26.8c0.22-1.14-0.32-2.41-0.73-5.15c-2.22,2.67-3.54,4.22-4.82,5.8
			c-6.04,7.48-11.99,15.02-18.16,22.39c-0.86,1.02-2.76,1.17-4.18,1.72c-0.21-1.41-0.6-2.81-0.61-4.22
			c-0.03-6.8,0.15-13.59-0.01-20.38c-0.03-1.54-1.08-3.07-2.07-5.67c-4.53,11.27-8.55,21.27-12.58,31.27c-0.71,0-1.42,0-2.13,0
			c-3.03-5.63-6.05-11.26-9.08-16.88c-0.65,0.22-1.29,0.44-1.94,0.66c-0.11,1.71-0.31,3.41-0.31,5.12c0,6.99,0.23,13.98,0.01,20.95
			c-0.07,2.18-1.3,4.32-2.05,6.65c-5.94-3.3-8.39-10.15-16.12-10.14c0.94,2.35,1.64,3.83,2.12,5.38c1.72,5.55,3.51,11.08,4.95,16.7
			c0.41,1.59-0.27,3.46-0.45,5.2c-1.65-0.48-3.34-0.84-4.95-1.45c-2.78-1.05-5.47-2.38-8.29-3.31c-0.91-0.3-2.12,0.32-3.19,0.53
			c0.2,1.03,0.15,2.2,0.64,3.06c1.95,3.46,4.72,6.6,5.98,10.27c2.87,8.39,7.21,14.93,15.42,19.25c4.73,2.49,8.33,7.14,12.44,10.81
			c0.61-0.22,1.22-0.44,1.83-0.66c-0.89-4.53-1.81-9.05-2.66-13.59c-0.23-1.23-0.22-2.5-0.33-3.75c1.37-0.07,2.93-0.61,4.07-0.13
			c4.42,1.86,8.78,3.92,13.02,6.15c2.86,1.51,5.5,3.45,9.57,6.03c-0.49-3.05-0.42-4.83-1.09-6.27c-1.25-2.7-2.97-5.18-4.41-7.79
			c-0.68-1.23-1.16-2.56-1.74-3.85c1.49-0.47,3.08-1.53,4.45-1.3c7.68,1.29,15.32,2.89,22.96,4.41c1.8,0.36,3.59,0.78,6.53,1.43
			c-2.9-6.21-7.5-8.59-11.6-11.52c-1.36-0.97-2.31-2.5-3.45-3.77c1.32-0.85,2.54-2.19,3.98-2.47c7.65-1.51,15.35-2.73,23.02-4.11
			c1.76-0.32,3.47-0.89,5.21-1.34c0.01-0.48,0.02-0.96,0.03-1.44c-2.06-0.87-4.05-2.11-6.2-2.55c-6.17-1.25-12.41-2.11-18.6-3.26
			c-1.36-0.25-2.62-1.07-3.93-1.63c0.82-1.29,1.37-2.94,2.52-3.8c2.51-1.88,5.22-3.56,8.02-4.97
			C224.32,55.55,231.93,51.96,239.51,48.3z"/>
		<path class="st0" d="M122.33,135.45c6.5,0.67,12.42,1.38,18.36,1.84c2.89,0.22,4.41,1.28,3.89,4.32
			c-1.01,5.88-1.77,11.82-3.28,17.57c-0.4,1.52-3.17,3.48-4.79,3.42c-6.79-0.24-13.59-0.95-20.3-2.01c-1.4-0.22-3.49-2.7-3.46-4.1
			c0.12-5.97,0.72-11.95,1.5-17.87C115.1,132.3,119.95,136.49,122.33,135.45z M133.15,157.65c3.56,1.25,5.01-1.13,5.43-4.52
			c1.43-11.45,4.09-11.19-8.8-12.24c-14.2-1.16-10.19-3.05-12.36,10.61c-0.03,0.16-0.02,0.33-0.04,0.5
			c-0.36,2.89,0.85,4.34,3.83,4.53C125.03,156.78,128.83,157.23,133.15,157.65z"/>
		<path class="st0" d="M95,92.75c16.94,0.21,13.76-0.01,12.7,14.12c-0.33,4.48-1.01,8.94-1.3,13.42c-0.2,3.08-1.6,4.01-4.54,3.67
			c-5.62-0.66-11.26-1.17-16.9-1.63c-3.24-0.26-4.24-1.97-3.9-5.02c0.74-6.79,1.43-13.58,1.99-20.39c0.24-2.93,1.71-4.16,4.48-4.17
			C90.02,92.75,92.51,92.75,95,92.75z M94.8,118.72c7.31,0.66,7.3,0.66,7.97-6.75c0.3-3.31,0.97-6.63,0.83-9.92
			c-0.07-1.55-1.55-4.22-2.6-4.33c-4.04-0.4-8.42-0.72-12.14,0.52c-1.41,0.47-1.38,5.24-2,8.06c-0.14,0.65-0.25,1.31-0.34,1.97
			C85.22,117.86,85.23,117.86,94.8,118.72z"/>
		<path class="st0" d="M2.39,167.74c0.26-8.55,0.47-8.73,9.06-7.82c5.44,0.57,10.88,1.24,16.33,1.62c3.35,0.23,4.81,1.55,4.37,5.01
			c-0.66,5.26-1.22,10.55-1.65,15.83c-0.25,3.08-1.49,4.51-4.75,4.12c-5.59-0.67-11.25-0.9-16.78-1.86c-1.6-0.28-3.69-2.2-4.14-3.77
			C3.61,176.61,3.15,172.13,2.39,167.74z M13.4,164.85c-5.78-0.5-6.41,0.06-6.02,5.78c0.13,1.97,0.14,4.1,0.91,5.84
			c0.71,1.57,2.27,3.69,3.66,3.86c4.48,0.53,9.05,0.28,13.59,0.31c0.08,0,0.22-0.26,0.23-0.41c0.39-4.09,1.45-8.3,0.76-12.2
			c-0.22-1.26-4.99-1.83-7.73-2.5C17.05,165.09,15.2,165.06,13.4,164.85z"/>
		<path class="st0" d="M36.83,215.66c0.41-4.46,0.89-8.91,1.19-13.38c0.23-3.39,1.43-5.17,5.27-4.63
			c5.25,0.74,10.55,1.16,15.84,1.58c3.16,0.25,4.35,1.78,4.02,4.88c-0.73,6.92-1.15,13.89-2.21,20.76c-0.2,1.28-3.03,3.33-4.22,3.07
			c-5.94-1.3-11.9-2.85-17.48-5.21c-1.76-0.74-2.35-4.25-3.48-6.49C36.12,216.04,36.47,215.85,36.83,215.66z M58.04,208.38
			c0.95-3.4-0.79-4.95-4.86-5.24c-12.56-0.89-10.3-1.77-11.33,9.25c-0.03,0.33-0.18,0.67-0.12,0.98c0.42,2.12,0.27,5.58,1.43,6.09
			c3.82,1.71,8.1,2.41,12.26,3.26c0.29,0.06,1.29-1.76,1.43-2.78C57.35,216.35,57.61,212.71,58.04,208.38z"/>
		<path class="st0" d="M104.39,141.65c-0.4,4.14-0.93,8.27-1.15,12.42c-0.2,3.75-1.75,5.44-5.66,4.95
			c-5.28-0.66-10.58-1.15-15.88-1.57c-2.84-0.22-4.31-1.34-4-4.38c0.58-5.79,1.07-11.6,1.59-17.4c0.28-3.12,1.85-4.3,5.03-3.88
			c4.27,0.56,8.59,0.72,12.87,1.19C104.98,133.84,104.97,133.88,104.39,141.65z M92.23,153.65c6.26,0.53,6.26,0.53,6.97-5.68
			c1.37-11.9,2.05-9.64-8.88-10.96c-6.38-0.77-6.76-0.27-7.15,6.13C82.58,152.84,82.58,152.84,92.23,153.65z"/>
		<path class="st0" d="M51.84,128.67c4.63,0.43,9.26,0.84,13.88,1.3c2.87,0.29,4.65,1.47,4.25,4.81
			c-0.67,5.61-1.25,11.24-1.72,16.87c-0.24,2.9-1.67,4.28-4.51,4.02c-5.63-0.51-11.24-1.14-16.86-1.69
			c-3.35-0.33-3.95-2.43-3.61-5.3c0.55-4.62,1.05-9.25,1.53-13.88C45.51,128.09,45.5,128.09,51.84,128.67z M64.84,139.13
			c0.03-0.66,0.36-1.64,0.05-1.93c-1.24-1.15-2.74-3.02-4.03-2.93c-3.82,0.26-8.69-3.59-11.22,0.92c-1.7,3.03-1.23,7.42-1.19,11.2
			c0.01,1.09,1.71,2.83,2.92,3.13c11.02,2.81,12.35,1.81,13.39-9.41C64.79,139.79,64.81,139.46,64.84,139.13z"/>
		<path class="st0" d="M23.46,151.76c-3.21-0.33-8.49-0.93-13.77-1.42c-3.27-0.3-4.2-2.08-2.68-4.7c3.64-6.29,7.33-12.57,11.5-18.51
			c0.86-1.22,3.97-1.47,5.91-1.2c11.77,1.63,11.82-1.6,10.39,12.98c-0.18,1.82-0.42,3.63-0.56,5.45
			C33.63,152.66,33.64,152.66,23.46,151.76z M22.43,146.78c7.17,0.69,7.16,0.69,7.57-6.42c0.07-1.16,0.37-2.35,0.2-3.47
			c-0.3-1.92-0.58-5.21-1.44-5.41c-2.53-0.59-5.49-0.38-8,0.41c-1.45,0.45-2.48,2.54-3.49,4.03
			C10.93,145.2,11.18,145.69,22.43,146.78z"/>
		<path class="st0" d="M49.01,163.62c4.45,0.44,8.9,0.94,13.36,1.28c2.77,0.21,4.34,1.24,4.04,4.32
			c-0.55,5.61-0.95,11.23-1.47,16.84c-0.25,2.74-1.59,4.15-4.58,3.79c-5.59-0.66-11.2-1.23-16.81-1.68c-3.06-0.25-3.9-1.85-3.6-4.64
			c0.47-4.45,0.78-8.92,1.22-13.37C41.87,163.09,41.98,163.02,49.01,163.62z M46.17,168.25c-0.44,4.65-0.96,8.44-1.04,12.25
			c-0.02,1.12,1.05,3.1,1.89,3.26c3.58,0.69,7.25,1.01,10.9,1.07c0.86,0.01,2.36-1.38,2.53-2.32c0.62-3.43,1.02-6.93,0.99-10.41
			c-0.01-0.95-1.69-2.54-2.78-2.72C54.78,168.77,50.82,168.63,46.17,168.25z"/>
		<path class="st0" d="M92.03,192.98c-5.09-0.51-9.55-1-14.02-1.39c-2.92-0.25-4.09-1.69-3.76-4.62c0.64-5.62,1.23-11.24,1.67-16.87
			c0.22-2.89,1.76-3.68,4.31-3.43c5.95,0.6,11.94,0.98,17.83,1.94c1.25,0.21,3.12,2.56,3.06,3.86c-0.24,5.97-0.85,11.94-1.72,17.86
			C98.55,196.18,93.96,191.58,92.03,192.98z M93.05,188.42c5.9-0.22,2.15-6.9,3.02-10.67c1.09-4.77,0.13-5.14-10.18-5.9
			c-5.54-0.41-5.7-0.16-6.57,9.79C78.83,187.25,78.97,187.34,93.05,188.42z"/>
		<path class="st0" d="M70.96,221.06c0.46-4.48,1.13-10.09,1.56-15.7c0.28-3.68,1.96-4.79,5.57-4.26c4.91,0.72,9.88,1.16,14.84,1.41
			c3.98,0.2,5.85,1.66,5,5.87c-0.42,2.1-0.07,4.43-0.79,6.39c-0.79,2.15-1.97,4.93-3.77,5.8c-5.32,2.56-10.95,4.6-16.62,6.31
			C71.24,228.51,70.61,227.78,70.96,221.06z M76.15,215.23c-0.41,7.26,0.18,7.72,6.86,5.21c1.7-0.64,3.32-1.52,5.06-2.03
			c4.65-1.37,5.55-4.97,4.94-8.95c-0.64-4.15-4.44-2.55-6.9-2.83C76.71,205.59,76.7,205.7,76.15,215.23z"/>
		<path class="st0" d="M139.68,127.67c-7.49-0.72-13.59-1.4-19.71-1.87c-3.13-0.24-4.42-1.56-4.04-4.78
			c0.76-6.42,1.22-12.88,2.03-19.3c0.16-1.23,1.36-2.32,2.09-3.47c1,0.93,2.49,1.68,2.93,2.82c3.49,9.13,9.36,16.22,17.49,21.59
			c1.09,0.72,1.51,2.47,2.24,3.74C141.32,126.99,139.92,127.57,139.68,127.67z M126.56,121.56c0.19-0.15,1.16-0.93,2.14-1.72
			c-1.84-2.13-3.67-4.26-5.51-6.39c-0.76,1.36-1.91,2.64-2.21,4.09C120.24,121,122.53,121.72,126.56,121.56z"/>
		<path class="st0" d="M47.1,112.69c-1.31-6.49,2.18-9.94,8.22-11.8c4.27-1.32,8.45-2.95,12.66-4.47c3.53-1.28,5.61-0.48,5.22,3.69
			c-0.53,5.63-1.18,11.25-1.68,16.89c-0.26,2.99-1.71,3.98-4.65,3.6c-4.95-0.63-9.92-1.26-14.91-1.45
			C47.59,118.99,45.78,117.31,47.1,112.69z M67.86,108.2c0.42-6.7-0.27-7.23-5.7-5.19c-2.48,0.93-4.81,2.3-7.34,3
			c-3.42,0.95-3.37,3.72-2.85,5.93c0.29,1.24,2.59,2.37,4.2,2.85c2.03,0.61,4.3,0.36,6.4,0.78c3.25,0.64,4.67-0.74,4.9-3.84
			C67.58,110.23,67.8,108.75,67.86,108.2z"/>
		<path class="st0" d="M119.52,170.5c3.63,0.38,7.27,0.75,10.9,1.13c5.53,0.58,6.08,1.49,3.39,6.51c-1.96,3.65-4.53,6.99-6.31,10.71
			c-3.02,6.3-7.7,7.68-14.17,6.29c-3.23-0.69-4.67-1.69-4.19-5.15c0.73-5.26,1.25-10.56,1.65-15.86c0.24-3.16,1.58-4.55,4.77-4.03
			c1.31,0.22,2.64,0.32,3.96,0.47C119.52,170.54,119.52,170.52,119.52,170.5z M114.26,184.82c-0.24,0.09-0.48,0.18-0.73,0.27
			c0.71,1.81,0.96,4.58,2.24,5.18c1.5,0.71,4.61,0.23,5.74-0.96c2.46-2.6,4.28-5.88,6.03-9.06c1.3-2.35,0.72-4.09-2.43-4.42
			c-11.65-1.23-9.55-1.93-10.79,8C114.28,184.15,114.28,184.49,114.26,184.82z"/>
		<path class="st0" d="M29.19,204.1c-1.12,2.94-2.24,5.88-3.36,8.82c-2.39-2.09-4.91-4.04-7.13-6.3c-1.97-2-3.75-4.22-5.32-6.55
			c-0.73-1.08-1.13-2.72-0.9-3.96c0.09-0.52,2.2-0.9,3.4-0.94c1.81-0.06,3.62,0.26,5.44,0.39C28.95,196.14,29.06,196.26,29.19,204.1
			z"/>
	</g>
</g>
</svg>
