<?xml version="1.0" encoding="utf-8"?>
<!-- Generator: Adobe Illustrator 23.0.1, SVG Export Plug-In . SVG Version: 6.00 Build 0)  -->
<svg version="1.1" id="Слой_1" xmlns="http://www.w3.org/2000/svg" xmlns:xlink="http://www.w3.org/1999/xlink" x="0px" y="0px"
	 viewBox="0 0 512 512" style="enable-background:new 0 0 512 512;" xml:space="preserve">
<style type="text/css">
	.st0{fill:#FFFFFF;}
</style>
<g>
	<g>
		<path class="st0" d="M136.41,354.36c-41.72-0.48-78.77-38.2-77.19-84.99c1.06-31.24,16.32-54.58,43.07-70.38
			c26.06-15.39,52.22-30.6,78.42-45.75c28.78-16.65,57.67-33.12,86.48-49.71c23.48-13.52,46.81-27.32,70.42-40.6
			c30.91-17.39,65.75-14.24,93.83,8.03c4.24,3.37,5.63,2.83,8.33-1.96c3.42-6.05,6.64-12.4,11.13-17.61
			c9.12-10.59,21.87-10.73,31.58-1.27c6.24,6.08,6.45,13.08,3.49,20.68c-1.9,4.89-1.33,5.93,3.51,6.85
			c11.76,2.24,17.26,8.18,17.41,18.81c0.16,11.15-6.26,19.57-17.72,21.29c-7.47,1.12-15.22,0.72-22.82,0.47
			c-4.93-0.16-6,0.39-5.49,5.45c2.81,28.15-5.11,52.77-26.41,71.55c-10.1,8.9-22.33,15.55-34.07,22.4
			c-49.68,29-99.54,57.71-149.35,86.5c-23.46,13.57-46.89,27.2-70.46,40.58C168.61,351.51,155.54,354.47,136.41,354.36z
			 M269.79,172.38c-0.73-0.53-1.15-0.8-1.53-1.12c-23.37-19.8-54.34-22.91-80.95-7.99c-10.44,5.85-20.8,11.88-31.06,18.04
			c-2.36,1.41-4.18,3.71-6.25,5.6c2.52,1.25,4.91,3.1,7.58,3.66c50.77,10.68,79.12,61.48,61.59,110.38
			c-0.69,1.93-0.15,4.3-0.18,6.46c1.96-0.49,4.16-0.57,5.84-1.54c62.65-36.18,125.22-72.51,187.88-108.68
			c27-15.59,40.93-43.64,36.3-73.99c-5.95-39.07-44.28-65.93-83.12-58.6c-13.28,2.51-24.45,9.3-35.77,15.92
			c-2.26,1.32-4.02,3.51-6.01,5.3c2.61,1.06,5.12,2.54,7.83,3.1c16.88,3.53,31.4,11.21,43.79,23.77c-2.94,2.71-5.58,5.15-8.34,7.68
			c-1.06-0.97-1.79-1.63-2.51-2.3c-22.98-21.34-56.77-25.08-83.66-9.15c-1.37,0.81-2.19,2.57-3.26,3.88
			c1.48,1.09,2.8,2.66,4.46,3.19c5.85,1.86,11.97,2.95,17.7,5.09c10.01,3.74,18.88,9.42,25.45,16.24c-2.7,3.07-5.07,5.76-7.46,8.48
			c-13.43-12.24-29.24-18.68-47.49-19c-13.31-0.23-25.73,2.96-37.07,9.95c-1.47,0.9-2.28,2.87-3.4,4.34c1.53,0.79,2.98,1.84,4.6,2.3
			c2.71,0.77,5.57,1,8.29,1.75c13.12,3.64,24.84,9.77,34.33,18.96C274.73,167,272.38,169.56,269.79,172.38z M70.7,271.55
			c-0.63,37.87,31,70.68,68.85,71.41c39.66,0.76,72.76-30.34,73.36-68.93c0.62-40.41-29.97-72.54-69.87-73.37
			C103.43,199.84,71.38,231.25,70.7,271.55z M484.46,89.03c-5.84,0.73-10.88-0.3-13.75-5.44c-2.8-5.03-0.67-9.61,2.56-13.8
			c0.8-1.04,1.37-2.27,1.95-3.45c2.05-4.17,0.9-7.32-3.02-9.7c-5.04-3.07-10.52-2.06-14.41,4.31c-4.38,7.16-7.64,15.01-11.17,22.67
			c-0.51,1.1-0.16,2.96,0.44,4.13c2.49,4.88,5.17,9.66,7.91,14.4c0.63,1.08,1.62,2.45,2.68,2.71c10.57,2.65,21.32,4.6,31.89,0.65
			c2.39-0.89,4.89-4.21,5.44-6.81C496.52,91.46,492.85,88.51,484.46,89.03z"/>
		<path class="st0" d="M295.16,422.24c-18.7-0.28-40.62-6.66-58.2-24.1c-22.3-22.13-20.8-53.85,3.34-74.12
			c20-16.79,43.44-22.45,68.97-20.47c18.51,1.43,35.58,7.15,49.88,19.37c29.13,24.88,27.09,61.13-4.44,83.14
			C338.44,417.41,320.24,422.21,295.16,422.24z M298.23,410.91c22.53,0.09,42.4-6.81,55.56-18.56
			c19.91-17.79,18.94-44.68-2.22-61.19c-27.85-21.73-73.03-22.1-101.26-0.84c-22.58,17.01-23.49,45-1.92,63.14
			C263.37,406.05,281.26,410.27,298.23,410.91z"/>
		<path class="st0" d="M80.71,474.19c-21.37-0.39-43.15-6.79-60.58-24.06c-22.19-21.98-20.86-53.52,2.92-73.83
			c20.17-17.23,43.94-22.88,69.82-20.82c19.77,1.57,37.66,8.32,52.45,21.88c26,23.82,22.62,59.67-7.39,80.59
			C121.51,469.38,103.12,474.16,80.71,474.19z M85.07,366.49c-19.13,0.22-36.12,4.43-51.07,15.37
			c-22.76,16.65-24.33,44.05-3.33,62.74c12.94,11.52,28.68,16.61,45.63,17.8c22.7,1.59,43.78-3.14,61.22-18.72
			c18.19-16.25,18.4-40.72,0.66-57.48C123.05,371.92,104.31,367.19,85.07,366.49z"/>
		<path class="st0" d="M98.03,269.53c-1.28-1.78-3.7-3.7-3.51-5.31c0.2-1.71,2.7-4.04,4.52-4.38c1.19-0.23,4.1,2.52,4.18,4.05
			c0.1,1.79-2.02,3.71-3.18,5.58C99.37,269.49,98.7,269.51,98.03,269.53z"/>
		<path class="st0" d="M158.31,312.56c1.18,1.86,3.49,3.91,3.21,5.52c-0.3,1.72-2.91,3.91-4.76,4.18c-1.17,0.17-3.91-2.77-3.93-4.35
			c-0.03-1.78,2.2-3.6,3.44-5.4C156.95,312.53,157.63,312.55,158.31,312.56z"/>
		<path class="st0" d="M147.04,239.14c-1.8,1.23-3.78,3.62-5.34,3.37c-1.73-0.27-3.97-2.82-4.26-4.65c-0.19-1.2,2.62-3.95,4.22-4.06
			c1.72-0.12,3.59,2.04,5.4,3.21C147.05,237.71,147.05,238.42,147.04,239.14z"/>
		<path class="st0" d="M175.59,280.51c-1.82,1.18-3.68,3.31-5.45,3.24c-1.57-0.07-4.41-2.79-4.23-3.98c0.27-1.8,2.51-4.34,4.2-4.58
			c1.63-0.24,3.63,2.04,5.47,3.21C175.58,279.1,175.58,279.8,175.59,280.51z"/>
		<path class="st0" d="M109.88,315.61c-1.22-1.82-3.58-3.81-3.34-5.42c0.24-1.68,2.86-3.88,4.69-4.14c1.22-0.17,3.99,2.63,4.03,4.14
			c0.04,1.79-2.13,3.62-3.34,5.44C111.24,315.62,110.56,315.61,109.88,315.61z"/>
		<path class="st0" d="M263.15,343.39c1.23,1.82,3.6,3.79,3.38,5.42c-0.22,1.66-2.84,3.89-4.66,4.15c-1.22,0.18-4-2.61-4.04-4.12
			c-0.05-1.79,2.11-3.64,3.31-5.46C261.81,343.39,262.48,343.39,263.15,343.39z"/>
		<path class="st0" d="M316.48,333.07c1.23,1.75,3.43,3.52,3.4,5.24c-0.03,1.59-2.63,4.5-3.81,4.36c-1.81-0.21-4.41-2.32-4.76-4.02
			c-0.32-1.55,1.89-3.63,2.99-5.48C315.02,333.15,315.75,333.11,316.48,333.07z"/>
		<path class="st0" d="M334.94,376.94c-1.03-1.87-3.03-3.87-2.81-5.57c0.21-1.6,3.08-4.24,4.25-3.98c1.78,0.39,4.15,2.78,4.31,4.5
			c0.15,1.59-2.26,3.44-3.54,5.17C336.41,377.02,335.67,376.98,334.94,376.94z"/>
		<path class="st0" d="M285.86,393.53c-1.07-1.93-3.09-3.95-2.9-5.76c0.15-1.49,2.99-3.87,4.47-3.75c1.59,0.13,4.17,2.74,4.15,4.23
			c-0.03,1.81-2.32,3.59-3.64,5.38C287.24,393.6,286.55,393.57,285.86,393.53z"/>
		<path class="st0" d="M54.35,417.55c-1.8,1.2-3.62,3.35-5.38,3.31c-1.59-0.04-4.55-2.71-4.37-3.81c0.3-1.86,2.42-4.44,4.13-4.74
			c1.62-0.29,3.69,1.96,5.55,3.09C54.3,416.12,54.33,416.84,54.35,417.55z"/>
		<path class="st0" d="M111.82,413.25c1.25,1.8,3.62,3.72,3.43,5.35c-0.19,1.66-2.77,3.99-4.55,4.22c-1.3,0.17-4.13-2.52-4.19-4.03
			c-0.08-1.78,2.08-3.66,3.27-5.5C110.46,413.28,111.14,413.27,111.82,413.25z"/>
		<path class="st0" d="M96.61,447.98c-1.82,1.22-3.79,3.57-5.42,3.35c-1.67-0.23-3.95-2.84-4.16-4.63
			c-0.16-1.29,2.61-4.08,4.12-4.12c1.79-0.05,3.63,2.15,5.45,3.37C96.6,446.63,96.6,447.3,96.61,447.98z"/>
		<path class="st0" d="M88.91,389.04c-1.74,1.29-3.6,3.73-5.18,3.56c-1.73-0.19-4.06-2.61-4.45-4.42c-0.25-1.17,2.41-4.06,3.97-4.23
			c1.73-0.19,3.7,1.85,5.57,2.92C88.85,387.59,88.88,388.32,88.91,389.04z"/>
	</g>
</g>
</svg>
