<?xml version="1.0" encoding="utf-8"?>
<!-- Generator: Adobe Illustrator 23.0.1, SVG Export Plug-In . SVG Version: 6.00 Build 0)  -->
<svg version="1.1" id="Слой_1" xmlns="http://www.w3.org/2000/svg" xmlns:xlink="http://www.w3.org/1999/xlink" x="0px" y="0px"
	 viewBox="0 0 203.4 148.7" style="enable-background:new 0 0 203.4 148.7;" xml:space="preserve">
<style type="text/css">
	.st0{fill:#31AC53;}
</style>
<title>logo</title>
<path id="_1" class="st0" d="M201.6,28.8L152.5,0.4h-0.1c-0.2-0.1-0.3-0.2-0.5-0.2c-0.1,0-0.1,0-0.2-0.1l-0.4-0.1
	c-0.1,0-0.2,0-0.3-0.1h-0.7c-0.1,0-0.2,0-0.2,0.1l-0.4,0.1c-0.1,0-0.1,0-0.2,0.1c-0.2,0.1-0.3,0.1-0.5,0.2l0,0l-47.4,27.3L54.3,0.4
	l0,0c-0.2-0.1-0.3-0.2-0.5-0.2l-0.2-0.1l-0.5-0.1c-0.1,0-0.2,0-0.3-0.1h-0.7c-0.1,0-0.2,0-0.3,0.1l-0.4,0.1l-0.2,0.1
	c-0.2,0.1-0.3,0.1-0.5,0.2l0,0L1.7,28.8c-1.7,1-2.2,3.1-1.3,4.8c0.3,0.5,0.7,1,1.3,1.3l47.4,27.3v54.7c0,0.9,0.4,1.8,1,2.4
	c0.2,0.2,0.5,0.4,0.7,0.6l48.9,28.2c0.1,0,0.1,0.1,0.1,0.1c0.5,0.3,1.1,0.5,1.8,0.5h0.1c0.6,0,1.2-0.2,1.7-0.5
	c0.1,0,0.1-0.1,0.1-0.1l48.9-28.2c0.3-0.2,0.5-0.4,0.7-0.6c0.6-0.7,1-1.5,1-2.5V62.2l47.4-27.3c1.1-0.6,1.7-1.8,1.7-3
	C203.4,30.6,202.7,29.4,201.6,28.8z M147.3,66.2v44.6l-38.6-22.3L147.3,66.2z M56.1,66.2l38.6,22.3l-38.6,22.3V66.2z M98.2,37.9
	v44.6L59.6,60.2L98.2,37.9z M143.8,60.2l-38.6,22.3V37.9L143.8,60.2z M52.6,7.5l42.1,24.3L52.6,56.1L10.5,31.8L52.6,7.5z M98.2,94.6
	v44.6l-38.6-22.3L98.2,94.6z M105.2,139.2V94.6l38.6,22.3L105.2,139.2z M150.8,56.2l-42.1-24.4l42.1-24.3l42.1,24.3L150.8,56.2z"/>
</svg>
